<svg id="arrow-left" viewBox="0 0 40 40" xmlns="http://www.w3.org/2000/svg">
<mask id="path-1-inside-1_3152_59300">
<path d="M30 20C23.3333 20 16.6667 20 10 20Z"/>
</mask>
<path d="M30 21C30.5523 21 31 20.5523 31 20C31 19.4477 30.5523 19 30 19L30 21ZM9.29289 19.2929C8.90237 19.6834 8.90237 20.3166 9.29289 20.7071L15.6569 27.0711C16.0474 27.4616 16.6805 27.4616 17.0711 27.0711C17.4616 26.6805 17.4616 26.0474 17.0711 25.6569L11.4142 20L17.0711 14.3431C17.4616 13.9526 17.4616 13.3195 17.0711 12.9289C16.6805 12.5384 16.0474 12.5384 15.6569 12.9289L9.29289 19.2929ZM30 19C29.987 19 29.974 19 29.9609 19C29.9479 19 29.9349 19 29.9219 19C29.9089 19 29.8958 19 29.8828 19C29.8698 19 29.8568 19 29.8438 19C29.8307 19 29.8177 19 29.8047 19C29.7917 19 29.7786 19 29.7656 19C29.7526 19 29.7396 19 29.7266 19C29.7135 19 29.7005 19 29.6875 19C29.6745 19 29.6615 19 29.6484 19C29.6354 19 29.6224 19 29.6094 19C29.5964 19 29.5833 19 29.5703 19C29.5573 19 29.5443 19 29.5313 19C29.5182 19 29.5052 19 29.4922 19C29.4792 19 29.4661 19 29.4531 19C29.4401 19 29.4271 19 29.4141 19C29.401 19 29.388 19 29.375 19C29.362 19 29.349 19 29.3359 19C29.3229 19 29.3099 19 29.2969 19C29.2839 19 29.2708 19 29.2578 19C29.2448 19 29.2318 19 29.2188 19C29.2057 19 29.1927 19 29.1797 19C29.1667 19 29.1536 19 29.1406 19C29.1276 19 29.1146 19 29.1016 19C29.0885 19 29.0755 19 29.0625 19C29.0495 19 29.0365 19 29.0234 19C29.0104 19 28.9974 19 28.9844 19C28.9714 19 28.9583 19 28.9453 19C28.9323 19 28.9193 19 28.9062 19C28.8932 19 28.8802 19 28.8672 19C28.8542 19 28.8411 19 28.8281 19C28.8151 19 28.8021 19 28.7891 19C28.776 19 28.763 19 28.75 19C28.737 19 28.724 19 28.7109 19C28.6979 19 28.6849 19 28.6719 19C28.6589 19 28.6458 19 28.6328 19C28.6198 19 28.6068 19 28.5937 19C28.5807 19 28.5677 19 28.5547 19C28.5417 19 28.5286 19 28.5156 19C28.5026 19 28.4896 19 28.4766 19C28.4635 19 28.4505 19 28.4375 19C28.4245 19 28.4115 19 28.3984 19C28.3854 19 28.3724 19 28.3594 19C28.3464 19 28.3333 19 28.3203 19C28.3073 19 28.2943 19 28.2812 19C28.2682 19 28.2552 19 28.2422 19C28.2292 19 28.2161 19 28.2031 19C28.1901 19 28.1771 19 28.1641 19C28.151 19 28.138 19 28.125 19C28.112 19 28.099 19 28.0859 19C28.0729 19 28.0599 19 28.0469 19C28.0339 19 28.0208 19 28.0078 19C27.9948 19 27.9818 19 27.9687 19C27.9557 19 27.9427 19 27.9297 19C27.9167 19 27.9036 19 27.8906 19C27.8776 19 27.8646 19 27.8516 19C27.8385 19 27.8255 19 27.8125 19C27.7995 19 27.7865 19 27.7734 19C27.7604 19 27.7474 19 27.7344 19C27.7214 19 27.7083 19 27.6953 19C27.6823 19 27.6693 19 27.6562 19C27.6432 19 27.6302 19 27.6172 19C27.6042 19 27.5911 19 27.5781 19C27.5651 19 27.5521 19 27.5391 19C27.526 19 27.513 19 27.5 19C27.487 19 27.474 19 27.4609 19C27.4479 19 27.4349 19 27.4219 19C27.4089 19 27.3958 19 27.3828 19C27.3698 19 27.3568 19 27.3437 19C27.3307 19 27.3177 19 27.3047 19C27.2917 19 27.2786 19 27.2656 19C27.2526 19 27.2396 19 27.2266 19C27.2135 19 27.2005 19 27.1875 19C27.1745 19 27.1615 19 27.1484 19C27.1354 19 27.1224 19 27.1094 19C27.0964 19 27.0833 19 27.0703 19C27.0573 19 27.0443 19 27.0312 19C27.0182 19 27.0052 19 26.9922 19C26.9792 19 26.9661 19 26.9531 19C26.9401 19 26.9271 19 26.9141 19C26.901 19 26.888 19 26.875 19C26.862 19 26.849 19 26.8359 19C26.8229 19 26.8099 19 26.7969 19C26.7839 19 26.7708 19 26.7578 19C26.7448 19 26.7318 19 26.7187 19C26.7057 19 26.6927 19 26.6797 19C26.6667 19 26.6536 19 26.6406 19C26.6276 19 26.6146 19 26.6016 19C26.5885 19 26.5755 19 26.5625 19C26.5495 19 26.5365 19 26.5234 19C26.5104 19 26.4974 19 26.4844 19C26.4714 19 26.4583 19 26.4453 19C26.4323 19 26.4193 19 26.4062 19C26.3932 19 26.3802 19 26.3672 19C26.3542 19 26.3411 19 26.3281 19C26.3151 19 26.3021 19 26.2891 19C26.276 19 26.263 19 26.25 19C26.237 19 26.224 19 26.2109 19C26.1979 19 26.1849 19 26.1719 19C26.1589 19 26.1458 19 26.1328 19C26.1198 19 26.1068 19 26.0937 19C26.0807 19 26.0677 19 26.0547 19C26.0417 19 26.0286 19 26.0156 19C26.0026 19 25.9896 19 25.9766 19C25.9635 19 25.9505 19 25.9375 19C25.9245 19 25.9115 19 25.8984 19C25.8854 19 25.8724 19 25.8594 19C25.8464 19 25.8333 19 25.8203 19C25.8073 19 25.7943 19 25.7812 19C25.7682 19 25.7552 19 25.7422 19C25.7292 19 25.7161 19 25.7031 19C25.6901 19 25.6771 19 25.6641 19C25.651 19 25.638 19 25.625 19C25.612 19 25.599 19 25.5859 19C25.5729 19 25.5599 19 25.5469 19C25.5339 19 25.5208 19 25.5078 19C25.4948 19 25.4818 19 25.4687 19C25.4557 19 25.4427 19 25.4297 19C25.4167 19 25.4036 19 25.3906 19C25.3776 19 25.3646 19 25.3516 19C25.3385 19 25.3255 19 25.3125 19C25.2995 19 25.2865 19 25.2734 19C25.2604 19 25.2474 19 25.2344 19C25.2214 19 25.2083 19 25.1953 19C25.1823 19 25.1693 19 25.1562 19C25.1432 19 25.1302 19 25.1172 19C25.1042 19 25.0911 19 25.0781 19C25.0651 19 25.0521 19 25.0391 19C25.026 19 25.013 19 25 19C24.987 19 24.974 19 24.9609 19C24.9479 19 24.9349 19 24.9219 19C24.9089 19 24.8958 19 24.8828 19C24.8698 19 24.8568 19 24.8437 19C24.8307 19 24.8177 19 24.8047 19C24.7917 19 24.7786 19 24.7656 19C24.7526 19 24.7396 19 24.7266 19C24.7135 19 24.7005 19 24.6875 19C24.6745 19 24.6615 19 24.6484 19C24.6354 19 24.6224 19 24.6094 19C24.5964 19 24.5833 19 24.5703 19C24.5573 19 24.5443 19 24.5312 19C24.5182 19 24.5052 19 24.4922 19C24.4792 19 24.4661 19 24.4531 19C24.4401 19 24.4271 19 24.4141 19C24.401 19 24.388 19 24.375 19C24.362 19 24.349 19 24.3359 19C24.3229 19 24.3099 19 24.2969 19C24.2839 19 24.2708 19 24.2578 19C24.2448 19 24.2318 19 24.2187 19C24.2057 19 24.1927 19 24.1797 19C24.1667 19 24.1536 19 24.1406 19C24.1276 19 24.1146 19 24.1016 19C24.0885 19 24.0755 19 24.0625 19C24.0495 19 24.0365 19 24.0234 19C24.0104 19 23.9974 19 23.9844 19C23.9714 19 23.9583 19 23.9453 19C23.9323 19 23.9193 19 23.9062 19C23.8932 19 23.8802 19 23.8672 19C23.8542 19 23.8411 19 23.8281 19C23.8151 19 23.8021 19 23.7891 19C23.776 19 23.763 19 23.75 19C23.737 19 23.724 19 23.7109 19C23.6979 19 23.6849 19 23.6719 19C23.6589 19 23.6458 19 23.6328 19C23.6198 19 23.6068 19 23.5937 19C23.5807 19 23.5677 19 23.5547 19C23.5417 19 23.5286 19 23.5156 19C23.5026 19 23.4896 19 23.4766 19C23.4635 19 23.4505 19 23.4375 19C23.4245 19 23.4115 19 23.3984 19C23.3854 19 23.3724 19 23.3594 19C23.3464 19 23.3333 19 23.3203 19C23.3073 19 23.2943 19 23.2812 19C23.2682 19 23.2552 19 23.2422 19C23.2292 19 23.2161 19 23.2031 19C23.1901 19 23.1771 19 23.1641 19C23.151 19 23.138 19 23.125 19C23.112 19 23.099 19 23.0859 19C23.0729 19 23.0599 19 23.0469 19C23.0339 19 23.0208 19 23.0078 19C22.9948 19 22.9818 19 22.9687 19C22.9557 19 22.9427 19 22.9297 19C22.9167 19 22.9036 19 22.8906 19C22.8776 19 22.8646 19 22.8516 19C22.8385 19 22.8255 19 22.8125 19C22.7995 19 22.7865 19 22.7734 19C22.7604 19 22.7474 19 22.7344 19C22.7214 19 22.7083 19 22.6953 19C22.6823 19 22.6693 19 22.6562 19C22.6432 19 22.6302 19 22.6172 19C22.6042 19 22.5911 19 22.5781 19C22.5651 19 22.5521 19 22.5391 19C22.526 19 22.513 19 22.5 19C22.487 19 22.474 19 22.4609 19C22.4479 19 22.4349 19 22.4219 19C22.4089 19 22.3958 19 22.3828 19C22.3698 19 22.3568 19 22.3437 19C22.3307 19 22.3177 19 22.3047 19C22.2917 19 22.2786 19 22.2656 19C22.2526 19 22.2396 19 22.2266 19C22.2135 19 22.2005 19 22.1875 19C22.1745 19 22.1615 19 22.1484 19C22.1354 19 22.1224 19 22.1094 19C22.0964 19 22.0833 19 22.0703 19C22.0573 19 22.0443 19 22.0312 19C22.0182 19 22.0052 19 21.9922 19C21.9792 19 21.9661 19 21.9531 19C21.9401 19 21.9271 19 21.9141 19C21.901 19 21.888 19 21.875 19C21.862 19 21.849 19 21.8359 19C21.8229 19 21.8099 19 21.7969 19C21.7839 19 21.7708 19 21.7578 19C21.7448 19 21.7318 19 21.7187 19C21.7057 19 21.6927 19 21.6797 19C21.6667 19 21.6536 19 21.6406 19C21.6276 19 21.6146 19 21.6016 19C21.5885 19 21.5755 19 21.5625 19C21.5495 19 21.5365 19 21.5234 19C21.5104 19 21.4974 19 21.4844 19C21.4714 19 21.4583 19 21.4453 19C21.4323 19 21.4193 19 21.4063 19C21.3932 19 21.3802 19 21.3672 19C21.3542 19 21.3411 19 21.3281 19C21.3151 19 21.3021 19 21.2891 19C21.276 19 21.263 19 21.25 19C21.237 19 21.224 19 21.2109 19C21.1979 19 21.1849 19 21.1719 19C21.1589 19 21.1458 19 21.1328 19C21.1198 19 21.1068 19 21.0938 19C21.0807 19 21.0677 19 21.0547 19C21.0417 19 21.0286 19 21.0156 19C21.0026 19 20.9896 19 20.9766 19C20.9635 19 20.9505 19 20.9375 19C20.9245 19 20.9115 19 20.8984 19C20.8854 19 20.8724 19 20.8594 19C20.8464 19 20.8333 19 20.8203 19C20.8073 19 20.7943 19 20.7813 19C20.7682 19 20.7552 19 20.7422 19C20.7292 19 20.7161 19 20.7031 19C20.6901 19 20.6771 19 20.6641 19C20.651 19 20.638 19 20.625 19C20.612 19 20.599 19 20.5859 19C20.5729 19 20.5599 19 20.5469 19C20.5339 19 20.5208 19 20.5078 19C20.4948 19 20.4818 19 20.4688 19C20.4557 19 20.4427 19 20.4297 19C20.4167 19 20.4036 19 20.3906 19C20.3776 19 20.3646 19 20.3516 19C20.3385 19 20.3255 19 20.3125 19C20.2995 19 20.2865 19 20.2734 19C20.2604 19 20.2474 19 20.2344 19C20.2214 19 20.2083 19 20.1953 19C20.1823 19 20.1693 19 20.1563 19C20.1432 19 20.1302 19 20.1172 19C20.1042 19 20.0911 19 20.0781 19C20.0651 19 20.0521 19 20.0391 19C20.026 19 20.013 19 20 19C19.987 19 19.974 19 19.9609 19C19.9479 19 19.9349 19 19.9219 19C19.9089 19 19.8958 19 19.8828 19C19.8698 19 19.8568 19 19.8438 19C19.8307 19 19.8177 19 19.8047 19C19.7917 19 19.7786 19 19.7656 19C19.7526 19 19.7396 19 19.7266 19C19.7135 19 19.7005 19 19.6875 19C19.6745 19 19.6615 19 19.6484 19C19.6354 19 19.6224 19 19.6094 19C19.5964 19 19.5833 19 19.5703 19C19.5573 19 19.5443 19 19.5313 19C19.5182 19 19.5052 19 19.4922 19C19.4792 19 19.4661 19 19.4531 19C19.4401 19 19.4271 19 19.4141 19C19.401 19 19.388 19 19.375 19C19.362 19 19.349 19 19.3359 19C19.3229 19 19.3099 19 19.2969 19C19.2839 19 19.2708 19 19.2578 19C19.2448 19 19.2318 19 19.2188 19C19.2057 19 19.1927 19 19.1797 19C19.1667 19 19.1536 19 19.1406 19C19.1276 19 19.1146 19 19.1016 19C19.0885 19 19.0755 19 19.0625 19C19.0495 19 19.0365 19 19.0234 19C19.0104 19 18.9974 19 18.9844 19C18.9714 19 18.9583 19 18.9453 19C18.9323 19 18.9193 19 18.9063 19C18.8932 19 18.8802 19 18.8672 19C18.8542 19 18.8411 19 18.8281 19C18.8151 19 18.8021 19 18.7891 19C18.776 19 18.763 19 18.75 19C18.737 19 18.724 19 18.7109 19C18.6979 19 18.6849 19 18.6719 19C18.6589 19 18.6458 19 18.6328 19C18.6198 19 18.6068 19 18.5938 19C18.5807 19 18.5677 19 18.5547 19C18.5417 19 18.5286 19 18.5156 19C18.5026 19 18.4896 19 18.4766 19C18.4635 19 18.4505 19 18.4375 19C18.4245 19 18.4115 19 18.3984 19C18.3854 19 18.3724 19 18.3594 19C18.3464 19 18.3333 19 18.3203 19C18.3073 19 18.2943 19 18.2813 19C18.2682 19 18.2552 19 18.2422 19C18.2292 19 18.2161 19 18.2031 19C18.1901 19 18.1771 19 18.1641 19C18.151 19 18.138 19 18.125 19C18.112 19 18.099 19 18.0859 19C18.0729 19 18.0599 19 18.0469 19C18.0339 19 18.0208 19 18.0078 19C17.9948 19 17.9818 19 17.9688 19C17.9557 19 17.9427 19 17.9297 19C17.9167 19 17.9036 19 17.8906 19C17.8776 19 17.8646 19 17.8516 19C17.8385 19 17.8255 19 17.8125 19C17.7995 19 17.7865 19 17.7734 19C17.7604 19 17.7474 19 17.7344 19C17.7214 19 17.7083 19 17.6953 19C17.6823 19 17.6693 19 17.6563 19C17.6432 19 17.6302 19 17.6172 19C17.6042 19 17.5911 19 17.5781 19C17.5651 19 17.5521 19 17.5391 19C17.526 19 17.513 19 17.5 19C17.487 19 17.474 19 17.4609 19C17.4479 19 17.4349 19 17.4219 19C17.4089 19 17.3958 19 17.3828 19C17.3698 19 17.3568 19 17.3438 19C17.3307 19 17.3177 19 17.3047 19C17.2917 19 17.2786 19 17.2656 19C17.2526 19 17.2396 19 17.2266 19C17.2135 19 17.2005 19 17.1875 19C17.1745 19 17.1615 19 17.1484 19C17.1354 19 17.1224 19 17.1094 19C17.0964 19 17.0833 19 17.0703 19C17.0573 19 17.0443 19 17.0313 19C17.0182 19 17.0052 19 16.9922 19C16.9792 19 16.9661 19 16.9531 19C16.9401 19 16.9271 19 16.9141 19C16.901 19 16.888 19 16.875 19C16.862 19 16.849 19 16.8359 19C16.8229 19 16.8099 19 16.7969 19C16.7839 19 16.7708 19 16.7578 19C16.7448 19 16.7318 19 16.7188 19C16.7057 19 16.6927 19 16.6797 19C16.6667 19 16.6536 19 16.6406 19C16.6276 19 16.6146 19 16.6016 19C16.5885 19 16.5755 19 16.5625 19C16.5495 19 16.5365 19 16.5234 19C16.5104 19 16.4974 19 16.4844 19C16.4714 19 16.4583 19 16.4453 19C16.4323 19 16.4193 19 16.4063 19C16.3932 19 16.3802 19 16.3672 19C16.3542 19 16.3411 19 16.3281 19C16.3151 19 16.3021 19 16.2891 19C16.276 19 16.263 19 16.25 19C16.237 19 16.224 19 16.2109 19C16.1979 19 16.1849 19 16.1719 19C16.1589 19 16.1458 19 16.1328 19C16.1198 19 16.1068 19 16.0938 19C16.0807 19 16.0677 19 16.0547 19C16.0417 19 16.0286 19 16.0156 19C16.0026 19 15.9896 19 15.9766 19C15.9635 19 15.9505 19 15.9375 19C15.9245 19 15.9115 19 15.8984 19C15.8854 19 15.8724 19 15.8594 19C15.8464 19 15.8333 19 15.8203 19C15.8073 19 15.7943 19 15.7813 19C15.7682 19 15.7552 19 15.7422 19C15.7292 19 15.7161 19 15.7031 19C15.6901 19 15.6771 19 15.6641 19C15.651 19 15.638 19 15.625 19C15.612 19 15.599 19 15.5859 19C15.5729 19 15.5599 19 15.5469 19C15.5339 19 15.5208 19 15.5078 19C15.4948 19 15.4818 19 15.4688 19C15.4557 19 15.4427 19 15.4297 19C15.4167 19 15.4036 19 15.3906 19C15.3776 19 15.3646 19 15.3516 19C15.3385 19 15.3255 19 15.3125 19C15.2995 19 15.2865 19 15.2734 19C15.2604 19 15.2474 19 15.2344 19C15.2214 19 15.2083 19 15.1953 19C15.1823 19 15.1693 19 15.1563 19C15.1432 19 15.1302 19 15.1172 19C15.1042 19 15.0911 19 15.0781 19C15.0651 19 15.0521 19 15.0391 19C15.026 19 15.013 19 15 19C14.987 19 14.974 19 14.9609 19C14.9479 19 14.9349 19 14.9219 19C14.9089 19 14.8958 19 14.8828 19C14.8698 19 14.8568 19 14.8438 19C14.8307 19 14.8177 19 14.8047 19C14.7917 19 14.7786 19 14.7656 19C14.7526 19 14.7396 19 14.7266 19C14.7135 19 14.7005 19 14.6875 19C14.6745 19 14.6615 19 14.6484 19C14.6354 19 14.6224 19 14.6094 19C14.5964 19 14.5833 19 14.5703 19C14.5573 19 14.5443 19 14.5313 19C14.5182 19 14.5052 19 14.4922 19C14.4792 19 14.4661 19 14.4531 19C14.4401 19 14.4271 19 14.4141 19C14.401 19 14.388 19 14.375 19C14.362 19 14.349 19 14.3359 19C14.3229 19 14.3099 19 14.2969 19C14.2839 19 14.2708 19 14.2578 19C14.2448 19 14.2318 19 14.2188 19C14.2057 19 14.1927 19 14.1797 19C14.1667 19 14.1536 19 14.1406 19C14.1276 19 14.1146 19 14.1016 19C14.0885 19 14.0755 19 14.0625 19C14.0495 19 14.0365 19 14.0234 19C14.0104 19 13.9974 19 13.9844 19C13.9714 19 13.9583 19 13.9453 19C13.9323 19 13.9193 19 13.9063 19C13.8932 19 13.8802 19 13.8672 19C13.8542 19 13.8411 19 13.8281 19C13.8151 19 13.8021 19 13.7891 19C13.776 19 13.763 19 13.75 19C13.737 19 13.724 19 13.7109 19C13.6979 19 13.6849 19 13.6719 19C13.6589 19 13.6458 19 13.6328 19C13.6198 19 13.6068 19 13.5938 19C13.5807 19 13.5677 19 13.5547 19C13.5417 19 13.5286 19 13.5156 19C13.5026 19 13.4896 19 13.4766 19C13.4635 19 13.4505 19 13.4375 19C13.4245 19 13.4115 19 13.3984 19C13.3854 19 13.3724 19 13.3594 19C13.3464 19 13.3333 19 13.3203 19C13.3073 19 13.2943 19 13.2813 19C13.2682 19 13.2552 19 13.2422 19C13.2292 19 13.2161 19 13.2031 19C13.1901 19 13.1771 19 13.1641 19C13.151 19 13.138 19 13.125 19C13.112 19 13.099 19 13.0859 19C13.0729 19 13.0599 19 13.0469 19C13.0339 19 13.0208 19 13.0078 19C12.9948 19 12.9818 19 12.9688 19C12.9557 19 12.9427 19 12.9297 19C12.9167 19 12.9036 19 12.8906 19C12.8776 19 12.8646 19 12.8516 19C12.8385 19 12.8255 19 12.8125 19C12.7995 19 12.7865 19 12.7734 19C12.7604 19 12.7474 19 12.7344 19C12.7214 19 12.7083 19 12.6953 19C12.6823 19 12.6693 19 12.6563 19C12.6432 19 12.6302 19 12.6172 19C12.6042 19 12.5911 19 12.5781 19C12.5651 19 12.5521 19 12.5391 19C12.526 19 12.513 19 12.5 19C12.487 19 12.474 19 12.4609 19C12.4479 19 12.4349 19 12.4219 19C12.4089 19 12.3958 19 12.3828 19C12.3698 19 12.3568 19 12.3438 19C12.3307 19 12.3177 19 12.3047 19C12.2917 19 12.2786 19 12.2656 19C12.2526 19 12.2396 19 12.2266 19C12.2135 19 12.2005 19 12.1875 19C12.1745 19 12.1615 19 12.1484 19C12.1354 19 12.1224 19 12.1094 19C12.0964 19 12.0833 19 12.0703 19C12.0573 19 12.0443 19 12.0313 19C12.0182 19 12.0052 19 11.9922 19C11.9792 19 11.9661 19 11.9531 19C11.9401 19 11.9271 19 11.9141 19C11.901 19 11.888 19 11.875 19C11.862 19 11.849 19 11.8359 19C11.8229 19 11.8099 19 11.7969 19C11.7839 19 11.7708 19 11.7578 19C11.7448 19 11.7318 19 11.7188 19C11.7057 19 11.6927 19 11.6797 19C11.6667 19 11.6536 19 11.6406 19C11.6276 19 11.6146 19 11.6016 19C11.5885 19 11.5755 19 11.5625 19C11.5495 19 11.5365 19 11.5234 19C11.5104 19 11.4974 19 11.4844 19C11.4714 19 11.4583 19 11.4453 19C11.4323 19 11.4193 19 11.4063 19C11.3932 19 11.3802 19 11.3672 19C11.3542 19 11.3411 19 11.3281 19C11.3151 19 11.3021 19 11.2891 19C11.276 19 11.263 19 11.25 19C11.237 19 11.224 19 11.2109 19C11.1979 19 11.1849 19 11.1719 19C11.1589 19 11.1458 19 11.1328 19C11.1198 19 11.1068 19 11.0938 19C11.0807 19 11.0677 19 11.0547 19C11.0417 19 11.0286 19 11.0156 19C11.0026 19 10.9896 19 10.9766 19C10.9635 19 10.9505 19 10.9375 19C10.9245 19 10.9115 19 10.8984 19C10.8854 19 10.8724 19 10.8594 19C10.8464 19 10.8333 19 10.8203 19C10.8073 19 10.7943 19 10.7813 19C10.7682 19 10.7552 19 10.7422 19C10.7292 19 10.7161 19 10.7031 19C10.6901 19 10.6771 19 10.6641 19C10.651 19 10.638 19 10.625 19C10.612 19 10.599 19 10.5859 19C10.5729 19 10.5599 19 10.5469 19C10.5339 19 10.5208 19 10.5078 19C10.4948 19 10.4818 19 10.4688 19C10.4557 19 10.4427 19 10.4297 19C10.4167 19 10.4036 19 10.3906 19C10.3776 19 10.3646 19 10.3516 19C10.3385 19 10.3255 19 10.3125 19C10.2995 19 10.2865 19 10.2734 19C10.2604 19 10.2474 19 10.2344 19C10.2214 19 10.2083 19 10.1953 19C10.1823 19 10.1693 19 10.1563 19C10.1432 19 10.1302 19 10.1172 19C10.1042 19 10.0911 19 10.0781 19C10.0651 19 10.0521 19 10.0391 19C10.026 19 10.013 19 10 19L10 21C10.013 21 10.026 21 10.0391 21C10.0521 21 10.0651 21 10.0781 21C10.0911 21 10.1042 21 10.1172 21C10.1302 21 10.1432 21 10.1562 21C10.1693 21 10.1823 21 10.1953 21C10.2083 21 10.2214 21 10.2344 21C10.2474 21 10.2604 21 10.2734 21C10.2865 21 10.2995 21 10.3125 21C10.3255 21 10.3385 21 10.3516 21C10.3646 21 10.3776 21 10.3906 21C10.4036 21 10.4167 21 10.4297 21C10.4427 21 10.4557 21 10.4687 21C10.4818 21 10.4948 21 10.5078 21C10.5208 21 10.5339 21 10.5469 21C10.5599 21 10.5729 21 10.5859 21C10.599 21 10.612 21 10.625 21C10.638 21 10.651 21 10.6641 21C10.6771 21 10.6901 21 10.7031 21C10.7161 21 10.7292 21 10.7422 21C10.7552 21 10.7682 21 10.7812 21C10.7943 21 10.8073 21 10.8203 21C10.8333 21 10.8464 21 10.8594 21C10.8724 21 10.8854 21 10.8984 21C10.9115 21 10.9245 21 10.9375 21C10.9505 21 10.9635 21 10.9766 21C10.9896 21 11.0026 21 11.0156 21C11.0286 21 11.0417 21 11.0547 21C11.0677 21 11.0807 21 11.0938 21C11.1068 21 11.1198 21 11.1328 21C11.1458 21 11.1589 21 11.1719 21C11.1849 21 11.1979 21 11.2109 21C11.224 21 11.237 21 11.25 21C11.263 21 11.276 21 11.2891 21C11.3021 21 11.3151 21 11.3281 21C11.3411 21 11.3542 21 11.3672 21C11.3802 21 11.3932 21 11.4063 21C11.4193 21 11.4323 21 11.4453 21C11.4583 21 11.4714 21 11.4844 21C11.4974 21 11.5104 21 11.5234 21C11.5365 21 11.5495 21 11.5625 21C11.5755 21 11.5885 21 11.6016 21C11.6146 21 11.6276 21 11.6406 21C11.6536 21 11.6667 21 11.6797 21C11.6927 21 11.7057 21 11.7188 21C11.7318 21 11.7448 21 11.7578 21C11.7708 21 11.7839 21 11.7969 21C11.8099 21 11.8229 21 11.8359 21C11.849 21 11.862 21 11.875 21C11.888 21 11.901 21 11.9141 21C11.9271 21 11.9401 21 11.9531 21C11.9661 21 11.9792 21 11.9922 21C12.0052 21 12.0182 21 12.0313 21C12.0443 21 12.0573 21 12.0703 21C12.0833 21 12.0964 21 12.1094 21C12.1224 21 12.1354 21 12.1484 21C12.1615 21 12.1745 21 12.1875 21C12.2005 21 12.2135 21 12.2266 21C12.2396 21 12.2526 21 12.2656 21C12.2786 21 12.2917 21 12.3047 21C12.3177 21 12.3307 21 12.3438 21C12.3568 21 12.3698 21 12.3828 21C12.3958 21 12.4089 21 12.4219 21C12.4349 21 12.4479 21 12.4609 21C12.474 21 12.487 21 12.5 21C12.513 21 12.526 21 12.5391 21C12.5521 21 12.5651 21 12.5781 21C12.5911 21 12.6042 21 12.6172 21C12.6302 21 12.6432 21 12.6563 21C12.6693 21 12.6823 21 12.6953 21C12.7083 21 12.7214 21 12.7344 21C12.7474 21 12.7604 21 12.7734 21C12.7865 21 12.7995 21 12.8125 21C12.8255 21 12.8385 21 12.8516 21C12.8646 21 12.8776 21 12.8906 21C12.9036 21 12.9167 21 12.9297 21C12.9427 21 12.9557 21 12.9688 21C12.9818 21 12.9948 21 13.0078 21C13.0208 21 13.0339 21 13.0469 21C13.0599 21 13.0729 21 13.0859 21C13.099 21 13.112 21 13.125 21C13.138 21 13.151 21 13.1641 21C13.1771 21 13.1901 21 13.2031 21C13.2161 21 13.2292 21 13.2422 21C13.2552 21 13.2682 21 13.2813 21C13.2943 21 13.3073 21 13.3203 21C13.3333 21 13.3464 21 13.3594 21C13.3724 21 13.3854 21 13.3984 21C13.4115 21 13.4245 21 13.4375 21C13.4505 21 13.4635 21 13.4766 21C13.4896 21 13.5026 21 13.5156 21C13.5286 21 13.5417 21 13.5547 21C13.5677 21 13.5807 21 13.5938 21C13.6068 21 13.6198 21 13.6328 21C13.6458 21 13.6589 21 13.6719 21C13.6849 21 13.6979 21 13.7109 21C13.724 21 13.737 21 13.75 21C13.763 21 13.776 21 13.7891 21C13.8021 21 13.8151 21 13.8281 21C13.8411 21 13.8542 21 13.8672 21C13.8802 21 13.8932 21 13.9063 21C13.9193 21 13.9323 21 13.9453 21C13.9583 21 13.9714 21 13.9844 21C13.9974 21 14.0104 21 14.0234 21C14.0365 21 14.0495 21 14.0625 21C14.0755 21 14.0885 21 14.1016 21C14.1146 21 14.1276 21 14.1406 21C14.1536 21 14.1667 21 14.1797 21C14.1927 21 14.2057 21 14.2188 21C14.2318 21 14.2448 21 14.2578 21C14.2708 21 14.2839 21 14.2969 21C14.3099 21 14.3229 21 14.3359 21C14.349 21 14.362 21 14.375 21C14.388 21 14.401 21 14.4141 21C14.4271 21 14.4401 21 14.4531 21C14.4661 21 14.4792 21 14.4922 21C14.5052 21 14.5182 21 14.5313 21C14.5443 21 14.5573 21 14.5703 21C14.5833 21 14.5964 21 14.6094 21C14.6224 21 14.6354 21 14.6484 21C14.6615 21 14.6745 21 14.6875 21C14.7005 21 14.7135 21 14.7266 21C14.7396 21 14.7526 21 14.7656 21C14.7786 21 14.7917 21 14.8047 21C14.8177 21 14.8307 21 14.8438 21C14.8568 21 14.8698 21 14.8828 21C14.8958 21 14.9089 21 14.9219 21C14.9349 21 14.9479 21 14.9609 21C14.974 21 14.987 21 15 21C15.013 21 15.026 21 15.0391 21C15.0521 21 15.0651 21 15.0781 21C15.0911 21 15.1042 21 15.1172 21C15.1302 21 15.1432 21 15.1563 21C15.1693 21 15.1823 21 15.1953 21C15.2083 21 15.2214 21 15.2344 21C15.2474 21 15.2604 21 15.2734 21C15.2865 21 15.2995 21 15.3125 21C15.3255 21 15.3385 21 15.3516 21C15.3646 21 15.3776 21 15.3906 21C15.4036 21 15.4167 21 15.4297 21C15.4427 21 15.4557 21 15.4688 21C15.4818 21 15.4948 21 15.5078 21C15.5208 21 15.5339 21 15.5469 21C15.5599 21 15.5729 21 15.5859 21C15.599 21 15.612 21 15.625 21C15.638 21 15.651 21 15.6641 21C15.6771 21 15.6901 21 15.7031 21C15.7161 21 15.7292 21 15.7422 21C15.7552 21 15.7682 21 15.7813 21C15.7943 21 15.8073 21 15.8203 21C15.8333 21 15.8464 21 15.8594 21C15.8724 21 15.8854 21 15.8984 21C15.9115 21 15.9245 21 15.9375 21C15.9505 21 15.9635 21 15.9766 21C15.9896 21 16.0026 21 16.0156 21C16.0286 21 16.0417 21 16.0547 21C16.0677 21 16.0807 21 16.0938 21C16.1068 21 16.1198 21 16.1328 21C16.1458 21 16.1589 21 16.1719 21C16.1849 21 16.1979 21 16.2109 21C16.224 21 16.237 21 16.25 21C16.263 21 16.276 21 16.2891 21C16.3021 21 16.3151 21 16.3281 21C16.3411 21 16.3542 21 16.3672 21C16.3802 21 16.3932 21 16.4063 21C16.4193 21 16.4323 21 16.4453 21C16.4583 21 16.4714 21 16.4844 21C16.4974 21 16.5104 21 16.5234 21C16.5365 21 16.5495 21 16.5625 21C16.5755 21 16.5885 21 16.6016 21C16.6146 21 16.6276 21 16.6406 21C16.6536 21 16.6667 21 16.6797 21C16.6927 21 16.7057 21 16.7188 21C16.7318 21 16.7448 21 16.7578 21C16.7708 21 16.7839 21 16.7969 21C16.8099 21 16.8229 21 16.8359 21C16.849 21 16.862 21 16.875 21C16.888 21 16.901 21 16.9141 21C16.9271 21 16.9401 21 16.9531 21C16.9661 21 16.9792 21 16.9922 21C17.0052 21 17.0182 21 17.0313 21C17.0443 21 17.0573 21 17.0703 21C17.0833 21 17.0964 21 17.1094 21C17.1224 21 17.1354 21 17.1484 21C17.1615 21 17.1745 21 17.1875 21C17.2005 21 17.2135 21 17.2266 21C17.2396 21 17.2526 21 17.2656 21C17.2786 21 17.2917 21 17.3047 21C17.3177 21 17.3307 21 17.3438 21C17.3568 21 17.3698 21 17.3828 21C17.3958 21 17.4089 21 17.4219 21C17.4349 21 17.4479 21 17.4609 21C17.474 21 17.487 21 17.5 21C17.513 21 17.526 21 17.5391 21C17.5521 21 17.5651 21 17.5781 21C17.5911 21 17.6042 21 17.6172 21C17.6302 21 17.6432 21 17.6563 21C17.6693 21 17.6823 21 17.6953 21C17.7083 21 17.7214 21 17.7344 21C17.7474 21 17.7604 21 17.7734 21C17.7865 21 17.7995 21 17.8125 21C17.8255 21 17.8385 21 17.8516 21C17.8646 21 17.8776 21 17.8906 21C17.9036 21 17.9167 21 17.9297 21C17.9427 21 17.9557 21 17.9688 21C17.9818 21 17.9948 21 18.0078 21C18.0208 21 18.0339 21 18.0469 21C18.0599 21 18.0729 21 18.0859 21C18.099 21 18.112 21 18.125 21C18.138 21 18.151 21 18.1641 21C18.1771 21 18.1901 21 18.2031 21C18.2161 21 18.2292 21 18.2422 21C18.2552 21 18.2682 21 18.2813 21C18.2943 21 18.3073 21 18.3203 21C18.3333 21 18.3464 21 18.3594 21C18.3724 21 18.3854 21 18.3984 21C18.4115 21 18.4245 21 18.4375 21C18.4505 21 18.4635 21 18.4766 21C18.4896 21 18.5026 21 18.5156 21C18.5286 21 18.5417 21 18.5547 21C18.5677 21 18.5807 21 18.5937 21C18.6068 21 18.6198 21 18.6328 21C18.6458 21 18.6589 21 18.6719 21C18.6849 21 18.6979 21 18.7109 21C18.724 21 18.737 21 18.75 21C18.763 21 18.776 21 18.7891 21C18.8021 21 18.8151 21 18.8281 21C18.8411 21 18.8542 21 18.8672 21C18.8802 21 18.8932 21 18.9062 21C18.9193 21 18.9323 21 18.9453 21C18.9583 21 18.9714 21 18.9844 21C18.9974 21 19.0104 21 19.0234 21C19.0365 21 19.0495 21 19.0625 21C19.0755 21 19.0885 21 19.1016 21C19.1146 21 19.1276 21 19.1406 21C19.1536 21 19.1667 21 19.1797 21C19.1927 21 19.2057 21 19.2187 21C19.2318 21 19.2448 21 19.2578 21C19.2708 21 19.2839 21 19.2969 21C19.3099 21 19.3229 21 19.3359 21C19.349 21 19.362 21 19.375 21C19.388 21 19.401 21 19.4141 21C19.4271 21 19.4401 21 19.4531 21C19.4661 21 19.4792 21 19.4922 21C19.5052 21 19.5182 21 19.5312 21C19.5443 21 19.5573 21 19.5703 21C19.5833 21 19.5964 21 19.6094 21C19.6224 21 19.6354 21 19.6484 21C19.6615 21 19.6745 21 19.6875 21C19.7005 21 19.7135 21 19.7266 21C19.7396 21 19.7526 21 19.7656 21C19.7786 21 19.7917 21 19.8047 21C19.8177 21 19.8307 21 19.8437 21C19.8568 21 19.8698 21 19.8828 21C19.8958 21 19.9089 21 19.9219 21C19.9349 21 19.9479 21 19.9609 21C19.974 21 19.987 21 20 21C20.013 21 20.026 21 20.0391 21C20.0521 21 20.0651 21 20.0781 21C20.0911 21 20.1042 21 20.1172 21C20.1302 21 20.1432 21 20.1562 21C20.1693 21 20.1823 21 20.1953 21C20.2083 21 20.2214 21 20.2344 21C20.2474 21 20.2604 21 20.2734 21C20.2865 21 20.2995 21 20.3125 21C20.3255 21 20.3385 21 20.3516 21C20.3646 21 20.3776 21 20.3906 21C20.4036 21 20.4167 21 20.4297 21C20.4427 21 20.4557 21 20.4687 21C20.4818 21 20.4948 21 20.5078 21C20.5208 21 20.5339 21 20.5469 21C20.5599 21 20.5729 21 20.5859 21C20.599 21 20.612 21 20.625 21C20.638 21 20.651 21 20.6641 21C20.6771 21 20.6901 21 20.7031 21C20.7161 21 20.7292 21 20.7422 21C20.7552 21 20.7682 21 20.7812 21C20.7943 21 20.8073 21 20.8203 21C20.8333 21 20.8464 21 20.8594 21C20.8724 21 20.8854 21 20.8984 21C20.9115 21 20.9245 21 20.9375 21C20.9505 21 20.9635 21 20.9766 21C20.9896 21 21.0026 21 21.0156 21C21.0286 21 21.0417 21 21.0547 21C21.0677 21 21.0807 21 21.0937 21C21.1068 21 21.1198 21 21.1328 21C21.1458 21 21.1589 21 21.1719 21C21.1849 21 21.1979 21 21.2109 21C21.224 21 21.237 21 21.25 21C21.263 21 21.276 21 21.2891 21C21.3021 21 21.3151 21 21.3281 21C21.3411 21 21.3542 21 21.3672 21C21.3802 21 21.3932 21 21.4062 21C21.4193 21 21.4323 21 21.4453 21C21.4583 21 21.4714 21 21.4844 21C21.4974 21 21.5104 21 21.5234 21C21.5365 21 21.5495 21 21.5625 21C21.5755 21 21.5885 21 21.6016 21C21.6146 21 21.6276 21 21.6406 21C21.6536 21 21.6667 21 21.6797 21C21.6927 21 21.7057 21 21.7187 21C21.7318 21 21.7448 21 21.7578 21C21.7708 21 21.7839 21 21.7969 21C21.8099 21 21.8229 21 21.8359 21C21.849 21 21.862 21 21.875 21C21.888 21 21.901 21 21.9141 21C21.9271 21 21.9401 21 21.9531 21C21.9661 21 21.9792 21 21.9922 21C22.0052 21 22.0182 21 22.0312 21C22.0443 21 22.0573 21 22.0703 21C22.0833 21 22.0964 21 22.1094 21C22.1224 21 22.1354 21 22.1484 21C22.1615 21 22.1745 21 22.1875 21C22.2005 21 22.2135 21 22.2266 21C22.2396 21 22.2526 21 22.2656 21C22.2786 21 22.2917 21 22.3047 21C22.3177 21 22.3307 21 22.3437 21C22.3568 21 22.3698 21 22.3828 21C22.3958 21 22.4089 21 22.4219 21C22.4349 21 22.4479 21 22.4609 21C22.474 21 22.487 21 22.5 21C22.513 21 22.526 21 22.5391 21C22.5521 21 22.5651 21 22.5781 21C22.5911 21 22.6042 21 22.6172 21C22.6302 21 22.6432 21 22.6562 21C22.6693 21 22.6823 21 22.6953 21C22.7083 21 22.7214 21 22.7344 21C22.7474 21 22.7604 21 22.7734 21C22.7865 21 22.7995 21 22.8125 21C22.8255 21 22.8385 21 22.8516 21C22.8646 21 22.8776 21 22.8906 21C22.9036 21 22.9167 21 22.9297 21C22.9427 21 22.9557 21 22.9687 21C22.9818 21 22.9948 21 23.0078 21C23.0208 21 23.0339 21 23.0469 21C23.0599 21 23.0729 21 23.0859 21C23.099 21 23.112 21 23.125 21C23.138 21 23.151 21 23.1641 21C23.1771 21 23.1901 21 23.2031 21C23.2161 21 23.2292 21 23.2422 21C23.2552 21 23.2682 21 23.2812 21C23.2943 21 23.3073 21 23.3203 21C23.3333 21 23.3464 21 23.3594 21C23.3724 21 23.3854 21 23.3984 21C23.4115 21 23.4245 21 23.4375 21C23.4505 21 23.4635 21 23.4766 21C23.4896 21 23.5026 21 23.5156 21C23.5286 21 23.5417 21 23.5547 21C23.5677 21 23.5807 21 23.5937 21C23.6068 21 23.6198 21 23.6328 21C23.6458 21 23.6589 21 23.6719 21C23.6849 21 23.6979 21 23.7109 21C23.724 21 23.737 21 23.75 21C23.763 21 23.776 21 23.7891 21C23.8021 21 23.8151 21 23.8281 21C23.8411 21 23.8542 21 23.8672 21C23.8802 21 23.8932 21 23.9062 21C23.9193 21 23.9323 21 23.9453 21C23.9583 21 23.9714 21 23.9844 21C23.9974 21 24.0104 21 24.0234 21C24.0365 21 24.0495 21 24.0625 21C24.0755 21 24.0885 21 24.1016 21C24.1146 21 24.1276 21 24.1406 21C24.1536 21 24.1667 21 24.1797 21C24.1927 21 24.2057 21 24.2187 21C24.2318 21 24.2448 21 24.2578 21C24.2708 21 24.2839 21 24.2969 21C24.3099 21 24.3229 21 24.3359 21C24.349 21 24.362 21 24.375 21C24.388 21 24.401 21 24.4141 21C24.4271 21 24.4401 21 24.4531 21C24.4661 21 24.4792 21 24.4922 21C24.5052 21 24.5182 21 24.5312 21C24.5443 21 24.5573 21 24.5703 21C24.5833 21 24.5964 21 24.6094 21C24.6224 21 24.6354 21 24.6484 21C24.6615 21 24.6745 21 24.6875 21C24.7005 21 24.7135 21 24.7266 21C24.7396 21 24.7526 21 24.7656 21C24.7786 21 24.7917 21 24.8047 21C24.8177 21 24.8307 21 24.8437 21C24.8568 21 24.8698 21 24.8828 21C24.8958 21 24.9089 21 24.9219 21C24.9349 21 24.9479 21 24.9609 21C24.974 21 24.987 21 25 21C25.013 21 25.026 21 25.0391 21C25.0521 21 25.0651 21 25.0781 21C25.0911 21 25.1042 21 25.1172 21C25.1302 21 25.1432 21 25.1562 21C25.1693 21 25.1823 21 25.1953 21C25.2083 21 25.2214 21 25.2344 21C25.2474 21 25.2604 21 25.2734 21C25.2865 21 25.2995 21 25.3125 21C25.3255 21 25.3385 21 25.3516 21C25.3646 21 25.3776 21 25.3906 21C25.4036 21 25.4167 21 25.4297 21C25.4427 21 25.4557 21 25.4687 21C25.4818 21 25.4948 21 25.5078 21C25.5208 21 25.5339 21 25.5469 21C25.5599 21 25.5729 21 25.5859 21C25.599 21 25.612 21 25.625 21C25.638 21 25.651 21 25.6641 21C25.6771 21 25.6901 21 25.7031 21C25.7161 21 25.7292 21 25.7422 21C25.7552 21 25.7682 21 25.7812 21C25.7943 21 25.8073 21 25.8203 21C25.8333 21 25.8464 21 25.8594 21C25.8724 21 25.8854 21 25.8984 21C25.9115 21 25.9245 21 25.9375 21C25.9505 21 25.9635 21 25.9766 21C25.9896 21 26.0026 21 26.0156 21C26.0286 21 26.0417 21 26.0547 21C26.0677 21 26.0807 21 26.0937 21C26.1068 21 26.1198 21 26.1328 21C26.1458 21 26.1589 21 26.1719 21C26.1849 21 26.1979 21 26.2109 21C26.224 21 26.237 21 26.25 21C26.263 21 26.276 21 26.2891 21C26.3021 21 26.3151 21 26.3281 21C26.3411 21 26.3542 21 26.3672 21C26.3802 21 26.3932 21 26.4062 21C26.4193 21 26.4323 21 26.4453 21C26.4583 21 26.4714 21 26.4844 21C26.4974 21 26.5104 21 26.5234 21C26.5365 21 26.5495 21 26.5625 21C26.5755 21 26.5885 21 26.6016 21C26.6146 21 26.6276 21 26.6406 21C26.6536 21 26.6667 21 26.6797 21C26.6927 21 26.7057 21 26.7187 21C26.7318 21 26.7448 21 26.7578 21C26.7708 21 26.7839 21 26.7969 21C26.8099 21 26.8229 21 26.8359 21C26.849 21 26.862 21 26.875 21C26.888 21 26.901 21 26.9141 21C26.9271 21 26.9401 21 26.9531 21C26.9661 21 26.9792 21 26.9922 21C27.0052 21 27.0182 21 27.0312 21C27.0443 21 27.0573 21 27.0703 21C27.0833 21 27.0964 21 27.1094 21C27.1224 21 27.1354 21 27.1484 21C27.1615 21 27.1745 21 27.1875 21C27.2005 21 27.2135 21 27.2266 21C27.2396 21 27.2526 21 27.2656 21C27.2786 21 27.2917 21 27.3047 21C27.3177 21 27.3307 21 27.3437 21C27.3568 21 27.3698 21 27.3828 21C27.3958 21 27.4089 21 27.4219 21C27.4349 21 27.4479 21 27.4609 21C27.474 21 27.487 21 27.5 21C27.513 21 27.526 21 27.5391 21C27.5521 21 27.5651 21 27.5781 21C27.5911 21 27.6042 21 27.6172 21C27.6302 21 27.6432 21 27.6562 21C27.6693 21 27.6823 21 27.6953 21C27.7083 21 27.7214 21 27.7344 21C27.7474 21 27.7604 21 27.7734 21C27.7865 21 27.7995 21 27.8125 21C27.8255 21 27.8385 21 27.8516 21C27.8646 21 27.8776 21 27.8906 21C27.9036 21 27.9167 21 27.9297 21C27.9427 21 27.9557 21 27.9687 21C27.9818 21 27.9948 21 28.0078 21C28.0208 21 28.0339 21 28.0469 21C28.0599 21 28.0729 21 28.0859 21C28.099 21 28.112 21 28.125 21C28.138 21 28.151 21 28.1641 21C28.1771 21 28.1901 21 28.2031 21C28.2161 21 28.2292 21 28.2422 21C28.2552 21 28.2682 21 28.2812 21C28.2943 21 28.3073 21 28.3203 21C28.3333 21 28.3464 21 28.3594 21C28.3724 21 28.3854 21 28.3984 21C28.4115 21 28.4245 21 28.4375 21C28.4505 21 28.4635 21 28.4766 21C28.4896 21 28.5026 21 28.5156 21C28.5286 21 28.5417 21 28.5547 21C28.5677 21 28.5807 21 28.5937 21C28.6068 21 28.6198 21 28.6328 21C28.6458 21 28.6589 21 28.6719 21C28.6849 21 28.6979 21 28.7109 21C28.724 21 28.737 21 28.75 21C28.763 21 28.776 21 28.7891 21C28.8021 21 28.8151 21 28.8281 21C28.8411 21 28.8542 21 28.8672 21C28.8802 21 28.8932 21 28.9062 21C28.9193 21 28.9323 21 28.9453 21C28.9583 21 28.9714 21 28.9844 21C28.9974 21 29.0104 21 29.0234 21C29.0365 21 29.0495 21 29.0625 21C29.0755 21 29.0885 21 29.1016 21C29.1146 21 29.1276 21 29.1406 21C29.1536 21 29.1667 21 29.1797 21C29.1927 21 29.2057 21 29.2187 21C29.2318 21 29.2448 21 29.2578 21C29.2708 21 29.2839 21 29.2969 21C29.3099 21 29.3229 21 29.3359 21C29.349 21 29.362 21 29.375 21C29.388 21 29.401 21 29.4141 21C29.4271 21 29.4401 21 29.4531 21C29.4661 21 29.4792 21 29.4922 21C29.5052 21 29.5182 21 29.5312 21C29.5443 21 29.5573 21 29.5703 21C29.5833 21 29.5964 21 29.6094 21C29.6224 21 29.6354 21 29.6484 21C29.6615 21 29.6745 21 29.6875 21C29.7005 21 29.7135 21 29.7266 21C29.7396 21 29.7526 21 29.7656 21C29.7786 21 29.7917 21 29.8047 21C29.8177 21 29.8307 21 29.8437 21C29.8568 21 29.8698 21 29.8828 21C29.8958 21 29.9089 21 29.9219 21C29.9349 21 29.9479 21 29.9609 21C29.974 21 29.987 21 30 21L30 19Z" stroke="#000" stroke-width="0.5" />
</svg>
