<svg width="8" height="8" viewBox="0 0 8 8" fill="none" xmlns="http://www.w3.org/2000/svg">
<path d="M6.2527 3.81559L2.51716 0.0802145C2.4637 0.026813 2.40219 0 2.33275 0C2.26329 0 2.2018 0.026813 2.14837 0.0802145L1.74764 0.481034C1.69413 0.534464 1.66748 0.595839 1.66748 0.665413C1.66748 0.734986 1.69413 0.796361 1.74764 0.849791L4.89793 4.00008L1.74764 7.15043C1.69413 7.20386 1.66748 7.26535 1.66748 7.33473C1.66748 7.40427 1.69413 7.46576 1.74764 7.51919L2.1484 7.91987C2.20183 7.97336 2.26332 8 2.33278 8C2.40221 8 2.4637 7.9733 2.51716 7.91987L6.25251 4.18446C6.30591 4.13106 6.33264 4.06955 6.33264 4.00008C6.33264 3.93062 6.30611 3.86914 6.2527 3.81559Z" fill="#A1AEB3"/>
</svg>
