<svg width="16" height="16" viewBox="0 0 16 16" fill="none" xmlns="http://www.w3.org/2000/svg">
<g clip-path="url(#clip0_3322_11737)">
<path d="M2.35681 2.34314C1.23799 3.46196 0.476061 4.88743 0.167379 6.43928C-0.141303 7.99112 0.0171238 9.59966 0.622625 11.0615C1.22813 12.5233 2.25351 13.7727 3.5691 14.6518C4.88469 15.5308 6.43141 16 8.01366 16C9.59591 16 11.1426 15.5308 12.4582 14.6518C13.7738 13.7727 14.7992 12.5233 15.4047 11.0615C16.0102 9.59965 16.1686 7.99112 15.8599 6.43928C15.5513 4.88743 14.7893 3.46196 13.6705 2.34314C12.9276 1.60028 12.0457 1.011 11.0751 0.608962C10.1045 0.206925 9.06423 -5.69109e-07 8.01366 -5.69109e-07C6.96308 -6.53402e-07 5.9228 0.206925 4.95219 0.608963C3.98159 1.011 3.09968 1.60028 2.35681 2.34314ZM10.2481 6.33123L8.57935 8L10.2481 9.66877L9.68243 10.2345L8.01366 8.56568L6.34489 10.2345L5.7792 9.66877L7.44797 8L5.7792 6.33123L6.34489 5.76554L8.01366 7.43431L9.68243 5.76554L10.2481 6.33123Z" fill="white"/>
</g>
<defs>
<clipPath id="clip0_3322_11737">
<rect width="16" height="16" fill="white"/>
</clipPath>
</defs>
</svg>
