<svg width="16" height="15" viewBox="0 0 16 15" fill="none" xmlns="http://www.w3.org/2000/svg">
<path d="M15.3859 12.1201L15.3854 12.1196L11.9628 9.00771C11.8969 8.94789 11.8105 8.91599 11.7216 8.91874C11.6327 8.92149 11.5483 8.95867 11.4863 9.02243L11.481 9.0279L11.4756 9.03319L9.78265 10.6716L9.59611 10.8522L9.34113 10.8035C8.77716 10.6958 7.70528 10.353 6.61814 9.26864L6.61754 9.26804C5.53051 8.1801 5.18724 7.10521 5.08206 6.54292L5.03061 6.26792L5.23807 6.08022L6.97866 4.50534C7.03946 4.44396 7.07484 4.36176 7.07752 4.27524C7.08026 4.18646 7.04835 4.10009 6.98854 4.03441L6.98827 4.03411L3.8771 0.612273L3.87692 0.612069C3.81708 0.546187 3.73392 0.506224 3.6451 0.500668C3.55627 0.495113 3.46878 0.524403 3.4012 0.582316L1.59237 2.13356C1.53959 2.19148 1.50819 2.26592 1.50372 2.34446L1.50363 2.346L1.50363 2.346C1.50318 2.35349 1.50214 2.36633 1.50069 2.38429C1.45839 2.90857 1.06409 7.79478 4.63263 11.365C4.63267 11.365 4.63271 11.365 4.63275 11.3651M15.3859 12.1201L13.6816 14.993C13.6538 14.9947 13.5494 14.9998 13.3793 14.9998C13.3514 14.9998 13.3216 14.9998 13.2898 14.9999C11.9976 15.0021 7.57129 15.0099 4.27912 11.7186L4.63275 11.3651M15.3859 12.1201C15.4515 12.1796 15.4913 12.2624 15.4967 12.3508C15.5021 12.4393 15.4727 12.5263 15.4148 12.5933L15.4136 12.5947L13.8623 14.4054M15.3859 12.1201L13.8623 14.4054M4.63275 11.3651C7.77586 14.5073 12.0194 14.5016 13.2988 14.4998C13.3271 14.4998 13.354 14.4998 13.3793 14.4998C13.5402 14.4998 13.6345 14.495 13.6514 14.4939L13.6537 14.4938C13.7315 14.4895 13.8052 14.4581 13.8623 14.4054M4.63275 11.3651L13.8623 14.4054" stroke="black"/>
</svg>
