<svg width="16" height="20" viewBox="0 0 16 20" fill="none" xmlns="http://www.w3.org/2000/svg">
<path d="M8.10526 19L7.80217 19.3977C7.98154 19.5344 8.23023 19.5341 8.40929 19.397L8.10526 19ZM14.7105 8.11628C14.7105 10.6435 13.0447 13.244 11.2808 15.2706C10.4099 16.2711 9.53747 17.1064 8.88231 17.6918C8.55508 17.9842 8.28291 18.2135 8.09339 18.369C7.99865 18.4468 7.92462 18.506 7.87477 18.5455C7.84984 18.5652 7.83096 18.58 7.81856 18.5896C7.81236 18.5945 7.80778 18.598 7.80488 18.6002C7.80342 18.6014 7.80239 18.6022 7.80178 18.6026C7.80148 18.6029 7.80128 18.603 7.80119 18.6031C7.80115 18.6031 7.80116 18.6031 7.80114 18.6031C7.80117 18.6031 7.80124 18.603 8.10526 19C8.40929 19.397 8.40941 19.3969 8.40955 19.3967C8.40964 19.3967 8.40981 19.3965 8.40998 19.3964C8.41033 19.3962 8.41078 19.3958 8.41133 19.3954C8.41245 19.3945 8.41399 19.3933 8.41595 19.3918C8.41987 19.3888 8.42549 19.3844 8.43273 19.3788C8.44722 19.3675 8.46824 19.3511 8.49535 19.3296C8.54957 19.2867 8.6282 19.2237 8.72775 19.1421C8.92679 18.9787 9.20972 18.7403 9.54861 18.4375C10.2257 17.8325 11.1296 16.9673 12.035 15.9271C13.8237 13.8722 15.7105 11.0309 15.7105 8.11628H14.7105ZM8.10526 19C8.40836 18.6023 8.40843 18.6024 8.40847 18.6024C8.40845 18.6024 8.40846 18.6024 8.40842 18.6024C8.40833 18.6023 8.40813 18.6022 8.40783 18.6019C8.40722 18.6015 8.40619 18.6007 8.40474 18.5996C8.40184 18.5973 8.39727 18.5938 8.39107 18.589C8.37868 18.5794 8.35982 18.5647 8.3349 18.5451C8.28506 18.5058 8.21106 18.4468 8.11634 18.3694C7.92687 18.2146 7.65476 17.9863 7.32758 17.6949C6.67253 17.1116 5.80027 16.2788 4.92951 15.2801C3.16612 13.2575 1.5 10.6568 1.5 8.11628H0.5C0.5 11.0438 2.38651 13.885 4.17575 15.9372C5.0813 16.9759 5.98537 17.8388 6.66255 18.4418C7.00149 18.7436 7.28448 18.9811 7.48357 19.1438C7.58314 19.2251 7.66179 19.2879 7.71604 19.3306C7.74316 19.352 7.76419 19.3683 7.77869 19.3796C7.78594 19.3852 7.79155 19.3895 7.79549 19.3925C7.79745 19.3941 7.79899 19.3952 7.80011 19.3961C7.80067 19.3965 7.80112 19.3969 7.80146 19.3971C7.80163 19.3973 7.80181 19.3974 7.80189 19.3975C7.80204 19.3976 7.80217 19.3977 8.10526 19ZM1.5 8.11628C1.5 4.46148 4.45801 1.5 8.10526 1.5V0.5C3.90426 0.5 0.5 3.91065 0.5 8.11628H1.5ZM8.10526 1.5C11.7525 1.5 14.7105 4.46148 14.7105 8.11628H15.7105C15.7105 3.91065 12.3063 0.5 8.10526 0.5V1.5Z" fill="black"/>
<path d="M8 11C9.65685 11 11 9.65685 11 8C11 6.34315 9.65685 5 8 5C6.34315 5 5 6.34315 5 8C5 9.65685 6.34315 11 8 11Z" stroke="black" stroke-miterlimit="10" stroke-linecap="round" stroke-linejoin="round"/>
</svg>
