<svg id="language"  viewBox="0 0 14 14" fill="none" xmlns="http://www.w3.org/2000/svg">
<circle cx="7" cy="7" r="6.5" stroke="black"/>
<path d="M9.5 7C9.5 8.8819 9.17212 10.5619 8.66175 11.7528C8.40618 12.3491 8.11471 12.7997 7.81652 13.094C7.52048 13.3862 7.24513 13.5 7 13.5C6.75487 13.5 6.47952 13.3862 6.18348 13.094C5.88529 12.7997 5.59382 12.3491 5.33825 11.7528C4.82788 10.5619 4.5 8.8819 4.5 7C4.5 5.1181 4.82788 3.43808 5.33825 2.24721C5.59382 1.65089 5.88529 1.20026 6.18348 0.905968C6.47952 0.6138 6.75487 0.5 7 0.5C7.24513 0.5 7.52048 0.6138 7.81652 0.905968C8.11471 1.20026 8.40618 1.65089 8.66175 2.24721C9.17212 3.43808 9.5 5.1181 9.5 7Z" stroke="black"/>
<path d="M0.5 5H13.5" stroke="black"/>
<path d="M0.5 9H13.5" stroke="black"/>
</svg>
