<svg id="logo" viewBox="0 0 203 28"  xmlns="http://www.w3.org/2000/svg">
<g clip-path="url(#clip0_2932_1489)">
<path d="M53.0548 15.8185C52.564 18.3144 50.4486 19.9859 46.4612 19.9859C41.9464 19.9859 39.1719 17.6216 39.1719 13.9997C39.1719 10.3936 41.7167 8.01172 46.2789 8.01172C49.9473 8.01172 52.3239 9.57975 52.8567 11.9651L50.4486 12.123C49.8912 10.9145 48.4663 10.1129 46.2789 10.1129C43.3047 10.1129 41.7501 11.7669 41.7501 13.9997C41.7501 16.2325 43.3537 17.8864 46.4595 17.8864C48.8221 17.8864 50.2277 16.9112 50.559 15.687L53.0548 15.8185Z" />
<path d="M187.315 15.8185C186.824 18.3144 184.708 19.9859 180.721 19.9859C176.206 19.9859 173.432 17.6216 173.432 13.9997C173.432 10.3936 175.977 8.01172 180.539 8.01172C184.207 8.01172 186.584 9.57975 187.117 11.9651L184.708 12.123C184.151 10.9145 182.726 10.1129 180.537 10.1129C177.563 10.1129 176.008 11.7669 176.008 13.9997C176.008 16.2325 177.612 17.8864 180.717 17.8864C183.08 17.8864 184.486 16.9112 184.817 15.687L187.315 15.8185Z"/>
<path d="M76.9881 18.1546C79.2561 18.1546 80.4742 17.5232 80.4742 16.6883C80.4742 16.0604 80.0465 15.6553 78.5235 15.3413L74.5712 14.5555C71.993 13.9767 71.0939 12.742 71.0939 11.3528C71.0939 9.22354 73.4407 7.94141 76.4904 7.94141C79.8292 7.94141 82.0656 9.19899 82.5563 11.5966L80.2323 11.7036C79.7205 10.432 78.4779 9.84444 76.3922 9.84444C74.7727 9.84444 73.6721 10.4478 73.6721 11.2037C73.6721 11.7826 73.9946 12.2228 75.5632 12.5403L79.2508 13.2436C81.5083 13.6716 83.0524 14.7204 83.0524 16.4726C83.0524 18.7931 80.6898 20.0559 76.9881 20.0559C73.1971 20.0559 71.0168 18.7247 70.54 16.1341L73.0306 16.106C73.4249 17.3724 74.785 18.1546 76.9881 18.1546Z" />
<path d="M111.247 17.8866C114.403 17.8866 116.089 16.2327 116.089 13.9999C116.089 11.7671 114.403 10.1131 111.247 10.1131C108.09 10.1131 106.422 11.7671 106.422 13.9999C106.42 16.2327 108.09 17.8866 111.247 17.8866ZM111.247 8.01367C115.974 8.01367 118.668 10.3955 118.668 14.0016C118.668 17.6078 115.974 19.9879 111.247 19.9879C106.52 19.9879 103.842 17.606 103.842 14.0016C103.842 10.3973 106.52 8.01367 111.247 8.01367Z" />
<path d="M140.124 8.21289H151.418V10.2299H142.702V12.9889H150.268V14.9077H142.702V17.7719H151.488V19.7889H140.124V8.21289Z" />
<path d="M164.341 14.0009C164.341 11.7681 162.897 10.3282 159.483 10.3282H156.293V17.6719H159.483C162.873 17.6737 164.341 16.2337 164.341 14.0009ZM166.919 14.0009C166.919 17.6228 164.226 19.7889 159.746 19.7889H153.715V8.21289H159.746C164.226 8.21289 166.919 10.379 166.919 14.0009Z" />
<path d="M171.464 8.21289H168.886V19.7907H171.464V8.21289Z" />
<path d="M97.7094 8.21289L93.4626 18.0175L89.2142 8.21289H85.0498V19.7889H87.5281V10.0089L91.8432 19.7889H95.0803L99.3954 10.0089V19.7889H101.875V8.21289H97.7094Z" />
<path d="M133.296 8.21289L129.048 18.0175L124.801 8.21289H120.635V19.7889H123.115V10.0089L127.43 19.7889H130.665L134.982 10.0089V19.7889H137.46V8.21289H133.296Z" />
<path d="M192.122 15.2585L194.79 9.44942L197.457 15.2585H192.122ZM199.539 19.7907H202.125L196.632 8.21289H192.97L187.478 19.7907H190.038L191.23 17.1948H198.344L199.539 19.7907Z" />
<path d="M61.7293 17.8866C64.8858 17.8866 66.5719 16.2327 66.5719 13.9999C66.5719 11.7671 64.8858 10.1131 61.7293 10.1131C58.5727 10.1131 56.9042 11.7671 56.9042 13.9999C56.9024 16.2327 58.5727 17.8866 61.7293 17.8866ZM61.7293 8.01367C66.4562 8.01367 69.1501 10.3955 69.1501 14.0016C69.1501 17.6078 66.4562 19.9879 61.7293 19.9879C57.0023 19.9879 54.3242 17.606 54.3242 14.0016C54.3242 10.3973 57.0023 8.01367 61.7293 8.01367Z" />
<path d="M21.5771 13.0003C19.707 13.0003 18.0332 12.2969 16.8397 11.1481C15.6917 9.95365 14.9888 8.27863 14.9888 6.40717V0H12.9908V6.40717C12.9908 8.27863 12.288 9.95365 11.14 11.1481C9.94641 12.2969 8.27261 13.0003 6.40251 13.0003H0V14.9997H6.40251C8.27261 14.9997 9.94641 15.7031 11.14 16.8519C12.288 18.0464 12.9908 19.7214 12.9908 21.5928V28H14.9888V21.5928C14.9888 19.7214 15.6917 18.0464 16.8397 16.8519C18.0332 15.7031 19.707 14.9997 21.5771 14.9997H27.9796V13.0003H21.5771Z" />
</g>
<defs>
<clipPath id="clip0_2932_1489">
<rect width="202.125" height="28" fill="white"/>
</clipPath>
</defs>
</svg>
