<svg width="60" height="40" viewBox="0 0 60 40" fill="none" xmlns="http://www.w3.org/2000/svg">
<mask id="path-1-inside-1_3192_59184" fill="white">
<path d="M20 20C26.6667 20 33.3333 20 40 20Z"/>
</mask>
<path d="M20 19C19.4477 19 19 19.4477 19 20C19 20.5523 19.4477 21 20 21V19ZM40.7071 20.7071C41.0976 20.3166 41.0976 19.6834 40.7071 19.2929L34.3431 12.9289C33.9526 12.5384 33.3195 12.5384 32.9289 12.9289C32.5384 13.3195 32.5384 13.9526 32.9289 14.3431L38.5858 20L32.9289 25.6569C32.5384 26.0474 32.5384 26.6805 32.9289 27.0711C33.3195 27.4616 33.9526 27.4616 34.3431 27.0711L40.7071 20.7071ZM20 21C20.013 21 20.026 21 20.0391 21C20.0521 21 20.0651 21 20.0781 21C20.0911 21 20.1042 21 20.1172 21C20.1302 21 20.1432 21 20.1563 21C20.1693 21 20.1823 21 20.1953 21C20.2083 21 20.2214 21 20.2344 21C20.2474 21 20.2604 21 20.2734 21C20.2865 21 20.2995 21 20.3125 21C20.3255 21 20.3385 21 20.3516 21C20.3646 21 20.3776 21 20.3906 21C20.4036 21 20.4167 21 20.4297 21C20.4427 21 20.4557 21 20.4688 21C20.4818 21 20.4948 21 20.5078 21C20.5208 21 20.5339 21 20.5469 21C20.5599 21 20.5729 21 20.5859 21C20.599 21 20.612 21 20.625 21C20.638 21 20.651 21 20.6641 21C20.6771 21 20.6901 21 20.7031 21C20.7161 21 20.7292 21 20.7422 21C20.7552 21 20.7682 21 20.7813 21C20.7943 21 20.8073 21 20.8203 21C20.8333 21 20.8464 21 20.8594 21C20.8724 21 20.8854 21 20.8984 21C20.9115 21 20.9245 21 20.9375 21C20.9505 21 20.9635 21 20.9766 21C20.9896 21 21.0026 21 21.0156 21C21.0286 21 21.0417 21 21.0547 21C21.0677 21 21.0807 21 21.0938 21C21.1068 21 21.1198 21 21.1328 21C21.1458 21 21.1589 21 21.1719 21C21.1849 21 21.1979 21 21.2109 21C21.224 21 21.237 21 21.25 21C21.263 21 21.276 21 21.2891 21C21.3021 21 21.3151 21 21.3281 21C21.3411 21 21.3542 21 21.3672 21C21.3802 21 21.3932 21 21.4063 21C21.4193 21 21.4323 21 21.4453 21C21.4583 21 21.4714 21 21.4844 21C21.4974 21 21.5104 21 21.5234 21C21.5365 21 21.5495 21 21.5625 21C21.5755 21 21.5885 21 21.6016 21C21.6146 21 21.6276 21 21.6406 21C21.6536 21 21.6667 21 21.6797 21C21.6927 21 21.7057 21 21.7188 21C21.7318 21 21.7448 21 21.7578 21C21.7708 21 21.7839 21 21.7969 21C21.8099 21 21.8229 21 21.8359 21C21.849 21 21.862 21 21.875 21C21.888 21 21.901 21 21.9141 21C21.9271 21 21.9401 21 21.9531 21C21.9661 21 21.9792 21 21.9922 21C22.0052 21 22.0182 21 22.0313 21C22.0443 21 22.0573 21 22.0703 21C22.0833 21 22.0964 21 22.1094 21C22.1224 21 22.1354 21 22.1484 21C22.1615 21 22.1745 21 22.1875 21C22.2005 21 22.2135 21 22.2266 21C22.2396 21 22.2526 21 22.2656 21C22.2786 21 22.2917 21 22.3047 21C22.3177 21 22.3307 21 22.3438 21C22.3568 21 22.3698 21 22.3828 21C22.3958 21 22.4089 21 22.4219 21C22.4349 21 22.4479 21 22.4609 21C22.474 21 22.487 21 22.5 21C22.513 21 22.526 21 22.5391 21C22.5521 21 22.5651 21 22.5781 21C22.5911 21 22.6042 21 22.6172 21C22.6302 21 22.6432 21 22.6563 21C22.6693 21 22.6823 21 22.6953 21C22.7083 21 22.7214 21 22.7344 21C22.7474 21 22.7604 21 22.7734 21C22.7865 21 22.7995 21 22.8125 21C22.8255 21 22.8385 21 22.8516 21C22.8646 21 22.8776 21 22.8906 21C22.9036 21 22.9167 21 22.9297 21C22.9427 21 22.9557 21 22.9688 21C22.9818 21 22.9948 21 23.0078 21C23.0208 21 23.0339 21 23.0469 21C23.0599 21 23.0729 21 23.0859 21C23.099 21 23.112 21 23.125 21C23.138 21 23.151 21 23.1641 21C23.1771 21 23.1901 21 23.2031 21C23.2161 21 23.2292 21 23.2422 21C23.2552 21 23.2682 21 23.2813 21C23.2943 21 23.3073 21 23.3203 21C23.3333 21 23.3464 21 23.3594 21C23.3724 21 23.3854 21 23.3984 21C23.4115 21 23.4245 21 23.4375 21C23.4505 21 23.4635 21 23.4766 21C23.4896 21 23.5026 21 23.5156 21C23.5286 21 23.5417 21 23.5547 21C23.5677 21 23.5807 21 23.5938 21C23.6068 21 23.6198 21 23.6328 21C23.6458 21 23.6589 21 23.6719 21C23.6849 21 23.6979 21 23.7109 21C23.724 21 23.737 21 23.75 21C23.763 21 23.776 21 23.7891 21C23.8021 21 23.8151 21 23.8281 21C23.8411 21 23.8542 21 23.8672 21C23.8802 21 23.8932 21 23.9063 21C23.9193 21 23.9323 21 23.9453 21C23.9583 21 23.9714 21 23.9844 21C23.9974 21 24.0104 21 24.0234 21C24.0365 21 24.0495 21 24.0625 21C24.0755 21 24.0885 21 24.1016 21C24.1146 21 24.1276 21 24.1406 21C24.1536 21 24.1667 21 24.1797 21C24.1927 21 24.2057 21 24.2188 21C24.2318 21 24.2448 21 24.2578 21C24.2708 21 24.2839 21 24.2969 21C24.3099 21 24.3229 21 24.3359 21C24.349 21 24.362 21 24.375 21C24.388 21 24.401 21 24.4141 21C24.4271 21 24.4401 21 24.4531 21C24.4661 21 24.4792 21 24.4922 21C24.5052 21 24.5182 21 24.5313 21C24.5443 21 24.5573 21 24.5703 21C24.5833 21 24.5964 21 24.6094 21C24.6224 21 24.6354 21 24.6484 21C24.6615 21 24.6745 21 24.6875 21C24.7005 21 24.7135 21 24.7266 21C24.7396 21 24.7526 21 24.7656 21C24.7786 21 24.7917 21 24.8047 21C24.8177 21 24.8307 21 24.8438 21C24.8568 21 24.8698 21 24.8828 21C24.8958 21 24.9089 21 24.9219 21C24.9349 21 24.9479 21 24.9609 21C24.974 21 24.987 21 25 21C25.013 21 25.026 21 25.0391 21C25.0521 21 25.0651 21 25.0781 21C25.0911 21 25.1042 21 25.1172 21C25.1302 21 25.1432 21 25.1563 21C25.1693 21 25.1823 21 25.1953 21C25.2083 21 25.2214 21 25.2344 21C25.2474 21 25.2604 21 25.2734 21C25.2865 21 25.2995 21 25.3125 21C25.3255 21 25.3385 21 25.3516 21C25.3646 21 25.3776 21 25.3906 21C25.4036 21 25.4167 21 25.4297 21C25.4427 21 25.4557 21 25.4688 21C25.4818 21 25.4948 21 25.5078 21C25.5208 21 25.5339 21 25.5469 21C25.5599 21 25.5729 21 25.5859 21C25.599 21 25.612 21 25.625 21C25.638 21 25.651 21 25.6641 21C25.6771 21 25.6901 21 25.7031 21C25.7161 21 25.7292 21 25.7422 21C25.7552 21 25.7682 21 25.7813 21C25.7943 21 25.8073 21 25.8203 21C25.8333 21 25.8464 21 25.8594 21C25.8724 21 25.8854 21 25.8984 21C25.9115 21 25.9245 21 25.9375 21C25.9505 21 25.9635 21 25.9766 21C25.9896 21 26.0026 21 26.0156 21C26.0286 21 26.0417 21 26.0547 21C26.0677 21 26.0807 21 26.0938 21C26.1068 21 26.1198 21 26.1328 21C26.1458 21 26.1589 21 26.1719 21C26.1849 21 26.1979 21 26.2109 21C26.224 21 26.237 21 26.25 21C26.263 21 26.276 21 26.2891 21C26.3021 21 26.3151 21 26.3281 21C26.3411 21 26.3542 21 26.3672 21C26.3802 21 26.3932 21 26.4063 21C26.4193 21 26.4323 21 26.4453 21C26.4583 21 26.4714 21 26.4844 21C26.4974 21 26.5104 21 26.5234 21C26.5365 21 26.5495 21 26.5625 21C26.5755 21 26.5885 21 26.6016 21C26.6146 21 26.6276 21 26.6406 21C26.6536 21 26.6667 21 26.6797 21C26.6927 21 26.7057 21 26.7188 21C26.7318 21 26.7448 21 26.7578 21C26.7708 21 26.7839 21 26.7969 21C26.8099 21 26.8229 21 26.8359 21C26.849 21 26.862 21 26.875 21C26.888 21 26.901 21 26.9141 21C26.9271 21 26.9401 21 26.9531 21C26.9661 21 26.9792 21 26.9922 21C27.0052 21 27.0182 21 27.0313 21C27.0443 21 27.0573 21 27.0703 21C27.0833 21 27.0964 21 27.1094 21C27.1224 21 27.1354 21 27.1484 21C27.1615 21 27.1745 21 27.1875 21C27.2005 21 27.2135 21 27.2266 21C27.2396 21 27.2526 21 27.2656 21C27.2786 21 27.2917 21 27.3047 21C27.3177 21 27.3307 21 27.3438 21C27.3568 21 27.3698 21 27.3828 21C27.3958 21 27.4089 21 27.4219 21C27.4349 21 27.4479 21 27.4609 21C27.474 21 27.487 21 27.5 21C27.513 21 27.526 21 27.5391 21C27.5521 21 27.5651 21 27.5781 21C27.5911 21 27.6042 21 27.6172 21C27.6302 21 27.6432 21 27.6563 21C27.6693 21 27.6823 21 27.6953 21C27.7083 21 27.7214 21 27.7344 21C27.7474 21 27.7604 21 27.7734 21C27.7865 21 27.7995 21 27.8125 21C27.8255 21 27.8385 21 27.8516 21C27.8646 21 27.8776 21 27.8906 21C27.9036 21 27.9167 21 27.9297 21C27.9427 21 27.9557 21 27.9688 21C27.9818 21 27.9948 21 28.0078 21C28.0208 21 28.0339 21 28.0469 21C28.0599 21 28.0729 21 28.0859 21C28.099 21 28.112 21 28.125 21C28.138 21 28.151 21 28.1641 21C28.1771 21 28.1901 21 28.2031 21C28.2161 21 28.2292 21 28.2422 21C28.2552 21 28.2682 21 28.2813 21C28.2943 21 28.3073 21 28.3203 21C28.3333 21 28.3464 21 28.3594 21C28.3724 21 28.3854 21 28.3984 21C28.4115 21 28.4245 21 28.4375 21C28.4505 21 28.4635 21 28.4766 21C28.4896 21 28.5026 21 28.5156 21C28.5286 21 28.5417 21 28.5547 21C28.5677 21 28.5807 21 28.5938 21C28.6068 21 28.6198 21 28.6328 21C28.6458 21 28.6589 21 28.6719 21C28.6849 21 28.6979 21 28.7109 21C28.724 21 28.737 21 28.75 21C28.763 21 28.776 21 28.7891 21C28.8021 21 28.8151 21 28.8281 21C28.8411 21 28.8542 21 28.8672 21C28.8802 21 28.8932 21 28.9063 21C28.9193 21 28.9323 21 28.9453 21C28.9583 21 28.9714 21 28.9844 21C28.9974 21 29.0104 21 29.0234 21C29.0365 21 29.0495 21 29.0625 21C29.0755 21 29.0885 21 29.1016 21C29.1146 21 29.1276 21 29.1406 21C29.1536 21 29.1667 21 29.1797 21C29.1927 21 29.2057 21 29.2188 21C29.2318 21 29.2448 21 29.2578 21C29.2708 21 29.2839 21 29.2969 21C29.3099 21 29.3229 21 29.3359 21C29.349 21 29.362 21 29.375 21C29.388 21 29.401 21 29.4141 21C29.4271 21 29.4401 21 29.4531 21C29.4661 21 29.4792 21 29.4922 21C29.5052 21 29.5182 21 29.5313 21C29.5443 21 29.5573 21 29.5703 21C29.5833 21 29.5964 21 29.6094 21C29.6224 21 29.6354 21 29.6484 21C29.6615 21 29.6745 21 29.6875 21C29.7005 21 29.7135 21 29.7266 21C29.7396 21 29.7526 21 29.7656 21C29.7786 21 29.7917 21 29.8047 21C29.8177 21 29.8307 21 29.8438 21C29.8568 21 29.8698 21 29.8828 21C29.8958 21 29.9089 21 29.9219 21C29.9349 21 29.9479 21 29.9609 21C29.974 21 29.987 21 30 21C30.013 21 30.026 21 30.0391 21C30.0521 21 30.0651 21 30.0781 21C30.0911 21 30.1042 21 30.1172 21C30.1302 21 30.1432 21 30.1563 21C30.1693 21 30.1823 21 30.1953 21C30.2083 21 30.2214 21 30.2344 21C30.2474 21 30.2604 21 30.2734 21C30.2865 21 30.2995 21 30.3125 21C30.3255 21 30.3385 21 30.3516 21C30.3646 21 30.3776 21 30.3906 21C30.4036 21 30.4167 21 30.4297 21C30.4427 21 30.4557 21 30.4688 21C30.4818 21 30.4948 21 30.5078 21C30.5208 21 30.5339 21 30.5469 21C30.5599 21 30.5729 21 30.5859 21C30.599 21 30.612 21 30.625 21C30.638 21 30.651 21 30.6641 21C30.6771 21 30.6901 21 30.7031 21C30.7161 21 30.7292 21 30.7422 21C30.7552 21 30.7682 21 30.7813 21C30.7943 21 30.8073 21 30.8203 21C30.8333 21 30.8464 21 30.8594 21C30.8724 21 30.8854 21 30.8984 21C30.9115 21 30.9245 21 30.9375 21C30.9505 21 30.9635 21 30.9766 21C30.9896 21 31.0026 21 31.0156 21C31.0286 21 31.0417 21 31.0547 21C31.0677 21 31.0807 21 31.0938 21C31.1068 21 31.1198 21 31.1328 21C31.1458 21 31.1589 21 31.1719 21C31.1849 21 31.1979 21 31.2109 21C31.224 21 31.237 21 31.25 21C31.263 21 31.276 21 31.2891 21C31.3021 21 31.3151 21 31.3281 21C31.3411 21 31.3542 21 31.3672 21C31.3802 21 31.3932 21 31.4063 21C31.4193 21 31.4323 21 31.4453 21C31.4583 21 31.4714 21 31.4844 21C31.4974 21 31.5104 21 31.5234 21C31.5365 21 31.5495 21 31.5625 21C31.5755 21 31.5885 21 31.6016 21C31.6146 21 31.6276 21 31.6406 21C31.6536 21 31.6667 21 31.6797 21C31.6927 21 31.7057 21 31.7188 21C31.7318 21 31.7448 21 31.7578 21C31.7708 21 31.7839 21 31.7969 21C31.8099 21 31.8229 21 31.8359 21C31.849 21 31.862 21 31.875 21C31.888 21 31.901 21 31.9141 21C31.9271 21 31.9401 21 31.9531 21C31.9661 21 31.9792 21 31.9922 21C32.0052 21 32.0182 21 32.0313 21C32.0443 21 32.0573 21 32.0703 21C32.0833 21 32.0964 21 32.1094 21C32.1224 21 32.1354 21 32.1484 21C32.1615 21 32.1745 21 32.1875 21C32.2005 21 32.2135 21 32.2266 21C32.2396 21 32.2526 21 32.2656 21C32.2786 21 32.2917 21 32.3047 21C32.3177 21 32.3307 21 32.3438 21C32.3568 21 32.3698 21 32.3828 21C32.3958 21 32.4089 21 32.4219 21C32.4349 21 32.4479 21 32.4609 21C32.474 21 32.487 21 32.5 21C32.513 21 32.526 21 32.5391 21C32.5521 21 32.5651 21 32.5781 21C32.5911 21 32.6042 21 32.6172 21C32.6302 21 32.6432 21 32.6563 21C32.6693 21 32.6823 21 32.6953 21C32.7083 21 32.7214 21 32.7344 21C32.7474 21 32.7604 21 32.7734 21C32.7865 21 32.7995 21 32.8125 21C32.8255 21 32.8385 21 32.8516 21C32.8646 21 32.8776 21 32.8906 21C32.9036 21 32.9167 21 32.9297 21C32.9427 21 32.9557 21 32.9688 21C32.9818 21 32.9948 21 33.0078 21C33.0208 21 33.0339 21 33.0469 21C33.0599 21 33.0729 21 33.0859 21C33.099 21 33.112 21 33.125 21C33.138 21 33.151 21 33.1641 21C33.1771 21 33.1901 21 33.2031 21C33.2161 21 33.2292 21 33.2422 21C33.2552 21 33.2682 21 33.2813 21C33.2943 21 33.3073 21 33.3203 21C33.3333 21 33.3464 21 33.3594 21C33.3724 21 33.3854 21 33.3984 21C33.4115 21 33.4245 21 33.4375 21C33.4505 21 33.4635 21 33.4766 21C33.4896 21 33.5026 21 33.5156 21C33.5286 21 33.5417 21 33.5547 21C33.5677 21 33.5807 21 33.5938 21C33.6068 21 33.6198 21 33.6328 21C33.6458 21 33.6589 21 33.6719 21C33.6849 21 33.6979 21 33.7109 21C33.724 21 33.737 21 33.75 21C33.763 21 33.776 21 33.7891 21C33.8021 21 33.8151 21 33.8281 21C33.8411 21 33.8542 21 33.8672 21C33.8802 21 33.8932 21 33.9063 21C33.9193 21 33.9323 21 33.9453 21C33.9583 21 33.9714 21 33.9844 21C33.9974 21 34.0104 21 34.0234 21C34.0365 21 34.0495 21 34.0625 21C34.0755 21 34.0885 21 34.1016 21C34.1146 21 34.1276 21 34.1406 21C34.1536 21 34.1667 21 34.1797 21C34.1927 21 34.2057 21 34.2188 21C34.2318 21 34.2448 21 34.2578 21C34.2708 21 34.2839 21 34.2969 21C34.3099 21 34.3229 21 34.3359 21C34.349 21 34.362 21 34.375 21C34.388 21 34.401 21 34.4141 21C34.4271 21 34.4401 21 34.4531 21C34.4661 21 34.4792 21 34.4922 21C34.5052 21 34.5182 21 34.5313 21C34.5443 21 34.5573 21 34.5703 21C34.5833 21 34.5964 21 34.6094 21C34.6224 21 34.6354 21 34.6484 21C34.6615 21 34.6745 21 34.6875 21C34.7005 21 34.7135 21 34.7266 21C34.7396 21 34.7526 21 34.7656 21C34.7786 21 34.7917 21 34.8047 21C34.8177 21 34.8307 21 34.8438 21C34.8568 21 34.8698 21 34.8828 21C34.8958 21 34.9089 21 34.9219 21C34.9349 21 34.9479 21 34.9609 21C34.974 21 34.987 21 35 21C35.013 21 35.026 21 35.0391 21C35.0521 21 35.0651 21 35.0781 21C35.0911 21 35.1042 21 35.1172 21C35.1302 21 35.1432 21 35.1563 21C35.1693 21 35.1823 21 35.1953 21C35.2083 21 35.2214 21 35.2344 21C35.2474 21 35.2604 21 35.2734 21C35.2865 21 35.2995 21 35.3125 21C35.3255 21 35.3385 21 35.3516 21C35.3646 21 35.3776 21 35.3906 21C35.4036 21 35.4167 21 35.4297 21C35.4427 21 35.4557 21 35.4688 21C35.4818 21 35.4948 21 35.5078 21C35.5208 21 35.5339 21 35.5469 21C35.5599 21 35.5729 21 35.5859 21C35.599 21 35.612 21 35.625 21C35.638 21 35.651 21 35.6641 21C35.6771 21 35.6901 21 35.7031 21C35.7161 21 35.7292 21 35.7422 21C35.7552 21 35.7682 21 35.7813 21C35.7943 21 35.8073 21 35.8203 21C35.8333 21 35.8464 21 35.8594 21C35.8724 21 35.8854 21 35.8984 21C35.9115 21 35.9245 21 35.9375 21C35.9505 21 35.9635 21 35.9766 21C35.9896 21 36.0026 21 36.0156 21C36.0286 21 36.0417 21 36.0547 21C36.0677 21 36.0807 21 36.0938 21C36.1068 21 36.1198 21 36.1328 21C36.1458 21 36.1589 21 36.1719 21C36.1849 21 36.1979 21 36.2109 21C36.224 21 36.237 21 36.25 21C36.263 21 36.276 21 36.2891 21C36.3021 21 36.3151 21 36.3281 21C36.3411 21 36.3542 21 36.3672 21C36.3802 21 36.3932 21 36.4063 21C36.4193 21 36.4323 21 36.4453 21C36.4583 21 36.4714 21 36.4844 21C36.4974 21 36.5104 21 36.5234 21C36.5365 21 36.5495 21 36.5625 21C36.5755 21 36.5885 21 36.6016 21C36.6146 21 36.6276 21 36.6406 21C36.6536 21 36.6667 21 36.6797 21C36.6927 21 36.7057 21 36.7188 21C36.7318 21 36.7448 21 36.7578 21C36.7708 21 36.7839 21 36.7969 21C36.8099 21 36.8229 21 36.8359 21C36.849 21 36.862 21 36.875 21C36.888 21 36.901 21 36.9141 21C36.9271 21 36.9401 21 36.9531 21C36.9661 21 36.9792 21 36.9922 21C37.0052 21 37.0182 21 37.0313 21C37.0443 21 37.0573 21 37.0703 21C37.0833 21 37.0964 21 37.1094 21C37.1224 21 37.1354 21 37.1484 21C37.1615 21 37.1745 21 37.1875 21C37.2005 21 37.2135 21 37.2266 21C37.2396 21 37.2526 21 37.2656 21C37.2786 21 37.2917 21 37.3047 21C37.3177 21 37.3307 21 37.3438 21C37.3568 21 37.3698 21 37.3828 21C37.3958 21 37.4089 21 37.4219 21C37.4349 21 37.4479 21 37.4609 21C37.474 21 37.487 21 37.5 21C37.513 21 37.526 21 37.5391 21C37.5521 21 37.5651 21 37.5781 21C37.5911 21 37.6042 21 37.6172 21C37.6302 21 37.6432 21 37.6563 21C37.6693 21 37.6823 21 37.6953 21C37.7083 21 37.7214 21 37.7344 21C37.7474 21 37.7604 21 37.7734 21C37.7865 21 37.7995 21 37.8125 21C37.8255 21 37.8385 21 37.8516 21C37.8646 21 37.8776 21 37.8906 21C37.9036 21 37.9167 21 37.9297 21C37.9427 21 37.9557 21 37.9688 21C37.9818 21 37.9948 21 38.0078 21C38.0208 21 38.0339 21 38.0469 21C38.0599 21 38.0729 21 38.0859 21C38.099 21 38.112 21 38.125 21C38.138 21 38.151 21 38.1641 21C38.1771 21 38.1901 21 38.2031 21C38.2161 21 38.2292 21 38.2422 21C38.2552 21 38.2682 21 38.2813 21C38.2943 21 38.3073 21 38.3203 21C38.3333 21 38.3464 21 38.3594 21C38.3724 21 38.3854 21 38.3984 21C38.4115 21 38.4245 21 38.4375 21C38.4505 21 38.4635 21 38.4766 21C38.4896 21 38.5026 21 38.5156 21C38.5286 21 38.5417 21 38.5547 21C38.5677 21 38.5807 21 38.5938 21C38.6068 21 38.6198 21 38.6328 21C38.6458 21 38.6589 21 38.6719 21C38.6849 21 38.6979 21 38.7109 21C38.724 21 38.737 21 38.75 21C38.763 21 38.776 21 38.7891 21C38.8021 21 38.8151 21 38.8281 21C38.8411 21 38.8542 21 38.8672 21C38.8802 21 38.8932 21 38.9063 21C38.9193 21 38.9323 21 38.9453 21C38.9583 21 38.9714 21 38.9844 21C38.9974 21 39.0104 21 39.0234 21C39.0365 21 39.0495 21 39.0625 21C39.0755 21 39.0885 21 39.1016 21C39.1146 21 39.1276 21 39.1406 21C39.1536 21 39.1667 21 39.1797 21C39.1927 21 39.2057 21 39.2188 21C39.2318 21 39.2448 21 39.2578 21C39.2708 21 39.2839 21 39.2969 21C39.3099 21 39.3229 21 39.3359 21C39.349 21 39.362 21 39.375 21C39.388 21 39.401 21 39.4141 21C39.4271 21 39.4401 21 39.4531 21C39.4661 21 39.4792 21 39.4922 21C39.5052 21 39.5182 21 39.5313 21C39.5443 21 39.5573 21 39.5703 21C39.5833 21 39.5964 21 39.6094 21C39.6224 21 39.6354 21 39.6484 21C39.6615 21 39.6745 21 39.6875 21C39.7005 21 39.7135 21 39.7266 21C39.7396 21 39.7526 21 39.7656 21C39.7786 21 39.7917 21 39.8047 21C39.8177 21 39.8307 21 39.8438 21C39.8568 21 39.8698 21 39.8828 21C39.8958 21 39.9089 21 39.9219 21C39.9349 21 39.9479 21 39.9609 21C39.974 21 39.987 21 40 21V19C39.987 19 39.974 19 39.9609 19C39.9479 19 39.9349 19 39.9219 19C39.9089 19 39.8958 19 39.8828 19C39.8698 19 39.8568 19 39.8438 19C39.8307 19 39.8177 19 39.8047 19C39.7917 19 39.7786 19 39.7656 19C39.7526 19 39.7396 19 39.7266 19C39.7135 19 39.7005 19 39.6875 19C39.6745 19 39.6615 19 39.6484 19C39.6354 19 39.6224 19 39.6094 19C39.5964 19 39.5833 19 39.5703 19C39.5573 19 39.5443 19 39.5313 19C39.5182 19 39.5052 19 39.4922 19C39.4792 19 39.4661 19 39.4531 19C39.4401 19 39.4271 19 39.4141 19C39.401 19 39.388 19 39.375 19C39.362 19 39.349 19 39.3359 19C39.3229 19 39.3099 19 39.2969 19C39.2839 19 39.2708 19 39.2578 19C39.2448 19 39.2318 19 39.2188 19C39.2057 19 39.1927 19 39.1797 19C39.1667 19 39.1536 19 39.1406 19C39.1276 19 39.1146 19 39.1016 19C39.0885 19 39.0755 19 39.0625 19C39.0495 19 39.0365 19 39.0234 19C39.0104 19 38.9974 19 38.9844 19C38.9714 19 38.9583 19 38.9453 19C38.9323 19 38.9193 19 38.9063 19C38.8932 19 38.8802 19 38.8672 19C38.8542 19 38.8411 19 38.8281 19C38.8151 19 38.8021 19 38.7891 19C38.776 19 38.763 19 38.75 19C38.737 19 38.724 19 38.7109 19C38.6979 19 38.6849 19 38.6719 19C38.6589 19 38.6458 19 38.6328 19C38.6198 19 38.6068 19 38.5938 19C38.5807 19 38.5677 19 38.5547 19C38.5417 19 38.5286 19 38.5156 19C38.5026 19 38.4896 19 38.4766 19C38.4635 19 38.4505 19 38.4375 19C38.4245 19 38.4115 19 38.3984 19C38.3854 19 38.3724 19 38.3594 19C38.3464 19 38.3333 19 38.3203 19C38.3073 19 38.2943 19 38.2813 19C38.2682 19 38.2552 19 38.2422 19C38.2292 19 38.2161 19 38.2031 19C38.1901 19 38.1771 19 38.1641 19C38.151 19 38.138 19 38.125 19C38.112 19 38.099 19 38.0859 19C38.0729 19 38.0599 19 38.0469 19C38.0339 19 38.0208 19 38.0078 19C37.9948 19 37.9818 19 37.9688 19C37.9557 19 37.9427 19 37.9297 19C37.9167 19 37.9036 19 37.8906 19C37.8776 19 37.8646 19 37.8516 19C37.8385 19 37.8255 19 37.8125 19C37.7995 19 37.7865 19 37.7734 19C37.7604 19 37.7474 19 37.7344 19C37.7214 19 37.7083 19 37.6953 19C37.6823 19 37.6693 19 37.6563 19C37.6432 19 37.6302 19 37.6172 19C37.6042 19 37.5911 19 37.5781 19C37.5651 19 37.5521 19 37.5391 19C37.526 19 37.513 19 37.5 19C37.487 19 37.474 19 37.4609 19C37.4479 19 37.4349 19 37.4219 19C37.4089 19 37.3958 19 37.3828 19C37.3698 19 37.3568 19 37.3438 19C37.3307 19 37.3177 19 37.3047 19C37.2917 19 37.2786 19 37.2656 19C37.2526 19 37.2396 19 37.2266 19C37.2135 19 37.2005 19 37.1875 19C37.1745 19 37.1615 19 37.1484 19C37.1354 19 37.1224 19 37.1094 19C37.0964 19 37.0833 19 37.0703 19C37.0573 19 37.0443 19 37.0313 19C37.0182 19 37.0052 19 36.9922 19C36.9792 19 36.9661 19 36.9531 19C36.9401 19 36.9271 19 36.9141 19C36.901 19 36.888 19 36.875 19C36.862 19 36.849 19 36.8359 19C36.8229 19 36.8099 19 36.7969 19C36.7839 19 36.7708 19 36.7578 19C36.7448 19 36.7318 19 36.7188 19C36.7057 19 36.6927 19 36.6797 19C36.6667 19 36.6536 19 36.6406 19C36.6276 19 36.6146 19 36.6016 19C36.5885 19 36.5755 19 36.5625 19C36.5495 19 36.5365 19 36.5234 19C36.5104 19 36.4974 19 36.4844 19C36.4714 19 36.4583 19 36.4453 19C36.4323 19 36.4193 19 36.4063 19C36.3932 19 36.3802 19 36.3672 19C36.3542 19 36.3411 19 36.3281 19C36.3151 19 36.3021 19 36.2891 19C36.276 19 36.263 19 36.25 19C36.237 19 36.224 19 36.2109 19C36.1979 19 36.1849 19 36.1719 19C36.1589 19 36.1458 19 36.1328 19C36.1198 19 36.1068 19 36.0938 19C36.0807 19 36.0677 19 36.0547 19C36.0417 19 36.0286 19 36.0156 19C36.0026 19 35.9896 19 35.9766 19C35.9635 19 35.9505 19 35.9375 19C35.9245 19 35.9115 19 35.8984 19C35.8854 19 35.8724 19 35.8594 19C35.8464 19 35.8333 19 35.8203 19C35.8073 19 35.7943 19 35.7813 19C35.7682 19 35.7552 19 35.7422 19C35.7292 19 35.7161 19 35.7031 19C35.6901 19 35.6771 19 35.6641 19C35.651 19 35.638 19 35.625 19C35.612 19 35.599 19 35.5859 19C35.5729 19 35.5599 19 35.5469 19C35.5339 19 35.5208 19 35.5078 19C35.4948 19 35.4818 19 35.4688 19C35.4557 19 35.4427 19 35.4297 19C35.4167 19 35.4036 19 35.3906 19C35.3776 19 35.3646 19 35.3516 19C35.3385 19 35.3255 19 35.3125 19C35.2995 19 35.2865 19 35.2734 19C35.2604 19 35.2474 19 35.2344 19C35.2214 19 35.2083 19 35.1953 19C35.1823 19 35.1693 19 35.1563 19C35.1432 19 35.1302 19 35.1172 19C35.1042 19 35.0911 19 35.0781 19C35.0651 19 35.0521 19 35.0391 19C35.026 19 35.013 19 35 19C34.987 19 34.974 19 34.9609 19C34.9479 19 34.9349 19 34.9219 19C34.9089 19 34.8958 19 34.8828 19C34.8698 19 34.8568 19 34.8438 19C34.8307 19 34.8177 19 34.8047 19C34.7917 19 34.7786 19 34.7656 19C34.7526 19 34.7396 19 34.7266 19C34.7135 19 34.7005 19 34.6875 19C34.6745 19 34.6615 19 34.6484 19C34.6354 19 34.6224 19 34.6094 19C34.5964 19 34.5833 19 34.5703 19C34.5573 19 34.5443 19 34.5313 19C34.5182 19 34.5052 19 34.4922 19C34.4792 19 34.4661 19 34.4531 19C34.4401 19 34.4271 19 34.4141 19C34.401 19 34.388 19 34.375 19C34.362 19 34.349 19 34.3359 19C34.3229 19 34.3099 19 34.2969 19C34.2839 19 34.2708 19 34.2578 19C34.2448 19 34.2318 19 34.2188 19C34.2057 19 34.1927 19 34.1797 19C34.1667 19 34.1536 19 34.1406 19C34.1276 19 34.1146 19 34.1016 19C34.0885 19 34.0755 19 34.0625 19C34.0495 19 34.0365 19 34.0234 19C34.0104 19 33.9974 19 33.9844 19C33.9714 19 33.9583 19 33.9453 19C33.9323 19 33.9193 19 33.9063 19C33.8932 19 33.8802 19 33.8672 19C33.8542 19 33.8411 19 33.8281 19C33.8151 19 33.8021 19 33.7891 19C33.776 19 33.763 19 33.75 19C33.737 19 33.724 19 33.7109 19C33.6979 19 33.6849 19 33.6719 19C33.6589 19 33.6458 19 33.6328 19C33.6198 19 33.6068 19 33.5938 19C33.5807 19 33.5677 19 33.5547 19C33.5417 19 33.5286 19 33.5156 19C33.5026 19 33.4896 19 33.4766 19C33.4635 19 33.4505 19 33.4375 19C33.4245 19 33.4115 19 33.3984 19C33.3854 19 33.3724 19 33.3594 19C33.3464 19 33.3333 19 33.3203 19C33.3073 19 33.2943 19 33.2813 19C33.2682 19 33.2552 19 33.2422 19C33.2292 19 33.2161 19 33.2031 19C33.1901 19 33.1771 19 33.1641 19C33.151 19 33.138 19 33.125 19C33.112 19 33.099 19 33.0859 19C33.0729 19 33.0599 19 33.0469 19C33.0339 19 33.0208 19 33.0078 19C32.9948 19 32.9818 19 32.9688 19C32.9557 19 32.9427 19 32.9297 19C32.9167 19 32.9036 19 32.8906 19C32.8776 19 32.8646 19 32.8516 19C32.8385 19 32.8255 19 32.8125 19C32.7995 19 32.7865 19 32.7734 19C32.7604 19 32.7474 19 32.7344 19C32.7214 19 32.7083 19 32.6953 19C32.6823 19 32.6693 19 32.6563 19C32.6432 19 32.6302 19 32.6172 19C32.6042 19 32.5911 19 32.5781 19C32.5651 19 32.5521 19 32.5391 19C32.526 19 32.513 19 32.5 19C32.487 19 32.474 19 32.4609 19C32.4479 19 32.4349 19 32.4219 19C32.4089 19 32.3958 19 32.3828 19C32.3698 19 32.3568 19 32.3438 19C32.3307 19 32.3177 19 32.3047 19C32.2917 19 32.2786 19 32.2656 19C32.2526 19 32.2396 19 32.2266 19C32.2135 19 32.2005 19 32.1875 19C32.1745 19 32.1615 19 32.1484 19C32.1354 19 32.1224 19 32.1094 19C32.0964 19 32.0833 19 32.0703 19C32.0573 19 32.0443 19 32.0313 19C32.0182 19 32.0052 19 31.9922 19C31.9792 19 31.9661 19 31.9531 19C31.9401 19 31.9271 19 31.9141 19C31.901 19 31.888 19 31.875 19C31.862 19 31.849 19 31.8359 19C31.8229 19 31.8099 19 31.7969 19C31.7839 19 31.7708 19 31.7578 19C31.7448 19 31.7318 19 31.7188 19C31.7057 19 31.6927 19 31.6797 19C31.6667 19 31.6536 19 31.6406 19C31.6276 19 31.6146 19 31.6016 19C31.5885 19 31.5755 19 31.5625 19C31.5495 19 31.5365 19 31.5234 19C31.5104 19 31.4974 19 31.4844 19C31.4714 19 31.4583 19 31.4453 19C31.4323 19 31.4193 19 31.4063 19C31.3932 19 31.3802 19 31.3672 19C31.3542 19 31.3411 19 31.3281 19C31.3151 19 31.3021 19 31.2891 19C31.276 19 31.263 19 31.25 19C31.237 19 31.224 19 31.2109 19C31.1979 19 31.1849 19 31.1719 19C31.1589 19 31.1458 19 31.1328 19C31.1198 19 31.1068 19 31.0938 19C31.0807 19 31.0677 19 31.0547 19C31.0417 19 31.0286 19 31.0156 19C31.0026 19 30.9896 19 30.9766 19C30.9635 19 30.9505 19 30.9375 19C30.9245 19 30.9115 19 30.8984 19C30.8854 19 30.8724 19 30.8594 19C30.8464 19 30.8333 19 30.8203 19C30.8073 19 30.7943 19 30.7813 19C30.7682 19 30.7552 19 30.7422 19C30.7292 19 30.7161 19 30.7031 19C30.6901 19 30.6771 19 30.6641 19C30.651 19 30.638 19 30.625 19C30.612 19 30.599 19 30.5859 19C30.5729 19 30.5599 19 30.5469 19C30.5339 19 30.5208 19 30.5078 19C30.4948 19 30.4818 19 30.4688 19C30.4557 19 30.4427 19 30.4297 19C30.4167 19 30.4036 19 30.3906 19C30.3776 19 30.3646 19 30.3516 19C30.3385 19 30.3255 19 30.3125 19C30.2995 19 30.2865 19 30.2734 19C30.2604 19 30.2474 19 30.2344 19C30.2214 19 30.2083 19 30.1953 19C30.1823 19 30.1693 19 30.1563 19C30.1432 19 30.1302 19 30.1172 19C30.1042 19 30.0911 19 30.0781 19C30.0651 19 30.0521 19 30.0391 19C30.026 19 30.013 19 30 19C29.987 19 29.974 19 29.9609 19C29.9479 19 29.9349 19 29.9219 19C29.9089 19 29.8958 19 29.8828 19C29.8698 19 29.8568 19 29.8438 19C29.8307 19 29.8177 19 29.8047 19C29.7917 19 29.7786 19 29.7656 19C29.7526 19 29.7396 19 29.7266 19C29.7135 19 29.7005 19 29.6875 19C29.6745 19 29.6615 19 29.6484 19C29.6354 19 29.6224 19 29.6094 19C29.5964 19 29.5833 19 29.5703 19C29.5573 19 29.5443 19 29.5313 19C29.5182 19 29.5052 19 29.4922 19C29.4792 19 29.4661 19 29.4531 19C29.4401 19 29.4271 19 29.4141 19C29.401 19 29.388 19 29.375 19C29.362 19 29.349 19 29.3359 19C29.3229 19 29.3099 19 29.2969 19C29.2839 19 29.2708 19 29.2578 19C29.2448 19 29.2318 19 29.2188 19C29.2057 19 29.1927 19 29.1797 19C29.1667 19 29.1536 19 29.1406 19C29.1276 19 29.1146 19 29.1016 19C29.0885 19 29.0755 19 29.0625 19C29.0495 19 29.0365 19 29.0234 19C29.0104 19 28.9974 19 28.9844 19C28.9714 19 28.9583 19 28.9453 19C28.9323 19 28.9193 19 28.9063 19C28.8932 19 28.8802 19 28.8672 19C28.8542 19 28.8411 19 28.8281 19C28.8151 19 28.8021 19 28.7891 19C28.776 19 28.763 19 28.75 19C28.737 19 28.724 19 28.7109 19C28.6979 19 28.6849 19 28.6719 19C28.6589 19 28.6458 19 28.6328 19C28.6198 19 28.6068 19 28.5938 19C28.5807 19 28.5677 19 28.5547 19C28.5417 19 28.5286 19 28.5156 19C28.5026 19 28.4896 19 28.4766 19C28.4635 19 28.4505 19 28.4375 19C28.4245 19 28.4115 19 28.3984 19C28.3854 19 28.3724 19 28.3594 19C28.3464 19 28.3333 19 28.3203 19C28.3073 19 28.2943 19 28.2813 19C28.2682 19 28.2552 19 28.2422 19C28.2292 19 28.2161 19 28.2031 19C28.1901 19 28.1771 19 28.1641 19C28.151 19 28.138 19 28.125 19C28.112 19 28.099 19 28.0859 19C28.0729 19 28.0599 19 28.0469 19C28.0339 19 28.0208 19 28.0078 19C27.9948 19 27.9818 19 27.9688 19C27.9557 19 27.9427 19 27.9297 19C27.9167 19 27.9036 19 27.8906 19C27.8776 19 27.8646 19 27.8516 19C27.8385 19 27.8255 19 27.8125 19C27.7995 19 27.7865 19 27.7734 19C27.7604 19 27.7474 19 27.7344 19C27.7214 19 27.7083 19 27.6953 19C27.6823 19 27.6693 19 27.6563 19C27.6432 19 27.6302 19 27.6172 19C27.6042 19 27.5911 19 27.5781 19C27.5651 19 27.5521 19 27.5391 19C27.526 19 27.513 19 27.5 19C27.487 19 27.474 19 27.4609 19C27.4479 19 27.4349 19 27.4219 19C27.4089 19 27.3958 19 27.3828 19C27.3698 19 27.3568 19 27.3438 19C27.3307 19 27.3177 19 27.3047 19C27.2917 19 27.2786 19 27.2656 19C27.2526 19 27.2396 19 27.2266 19C27.2135 19 27.2005 19 27.1875 19C27.1745 19 27.1615 19 27.1484 19C27.1354 19 27.1224 19 27.1094 19C27.0964 19 27.0833 19 27.0703 19C27.0573 19 27.0443 19 27.0313 19C27.0182 19 27.0052 19 26.9922 19C26.9792 19 26.9661 19 26.9531 19C26.9401 19 26.9271 19 26.9141 19C26.901 19 26.888 19 26.875 19C26.862 19 26.849 19 26.8359 19C26.8229 19 26.8099 19 26.7969 19C26.7839 19 26.7708 19 26.7578 19C26.7448 19 26.7318 19 26.7188 19C26.7057 19 26.6927 19 26.6797 19C26.6667 19 26.6536 19 26.6406 19C26.6276 19 26.6146 19 26.6016 19C26.5885 19 26.5755 19 26.5625 19C26.5495 19 26.5365 19 26.5234 19C26.5104 19 26.4974 19 26.4844 19C26.4714 19 26.4583 19 26.4453 19C26.4323 19 26.4193 19 26.4063 19C26.3932 19 26.3802 19 26.3672 19C26.3542 19 26.3411 19 26.3281 19C26.3151 19 26.3021 19 26.2891 19C26.276 19 26.263 19 26.25 19C26.237 19 26.224 19 26.2109 19C26.1979 19 26.1849 19 26.1719 19C26.1589 19 26.1458 19 26.1328 19C26.1198 19 26.1068 19 26.0938 19C26.0807 19 26.0677 19 26.0547 19C26.0417 19 26.0286 19 26.0156 19C26.0026 19 25.9896 19 25.9766 19C25.9635 19 25.9505 19 25.9375 19C25.9245 19 25.9115 19 25.8984 19C25.8854 19 25.8724 19 25.8594 19C25.8464 19 25.8333 19 25.8203 19C25.8073 19 25.7943 19 25.7813 19C25.7682 19 25.7552 19 25.7422 19C25.7292 19 25.7161 19 25.7031 19C25.6901 19 25.6771 19 25.6641 19C25.651 19 25.638 19 25.625 19C25.612 19 25.599 19 25.5859 19C25.5729 19 25.5599 19 25.5469 19C25.5339 19 25.5208 19 25.5078 19C25.4948 19 25.4818 19 25.4688 19C25.4557 19 25.4427 19 25.4297 19C25.4167 19 25.4036 19 25.3906 19C25.3776 19 25.3646 19 25.3516 19C25.3385 19 25.3255 19 25.3125 19C25.2995 19 25.2865 19 25.2734 19C25.2604 19 25.2474 19 25.2344 19C25.2214 19 25.2083 19 25.1953 19C25.1823 19 25.1693 19 25.1563 19C25.1432 19 25.1302 19 25.1172 19C25.1042 19 25.0911 19 25.0781 19C25.0651 19 25.0521 19 25.0391 19C25.026 19 25.013 19 25 19C24.987 19 24.974 19 24.9609 19C24.9479 19 24.9349 19 24.9219 19C24.9089 19 24.8958 19 24.8828 19C24.8698 19 24.8568 19 24.8438 19C24.8307 19 24.8177 19 24.8047 19C24.7917 19 24.7786 19 24.7656 19C24.7526 19 24.7396 19 24.7266 19C24.7135 19 24.7005 19 24.6875 19C24.6745 19 24.6615 19 24.6484 19C24.6354 19 24.6224 19 24.6094 19C24.5964 19 24.5833 19 24.5703 19C24.5573 19 24.5443 19 24.5313 19C24.5182 19 24.5052 19 24.4922 19C24.4792 19 24.4661 19 24.4531 19C24.4401 19 24.4271 19 24.4141 19C24.401 19 24.388 19 24.375 19C24.362 19 24.349 19 24.3359 19C24.3229 19 24.3099 19 24.2969 19C24.2839 19 24.2708 19 24.2578 19C24.2448 19 24.2318 19 24.2188 19C24.2057 19 24.1927 19 24.1797 19C24.1667 19 24.1536 19 24.1406 19C24.1276 19 24.1146 19 24.1016 19C24.0885 19 24.0755 19 24.0625 19C24.0495 19 24.0365 19 24.0234 19C24.0104 19 23.9974 19 23.9844 19C23.9714 19 23.9583 19 23.9453 19C23.9323 19 23.9193 19 23.9063 19C23.8932 19 23.8802 19 23.8672 19C23.8542 19 23.8411 19 23.8281 19C23.8151 19 23.8021 19 23.7891 19C23.776 19 23.763 19 23.75 19C23.737 19 23.724 19 23.7109 19C23.6979 19 23.6849 19 23.6719 19C23.6589 19 23.6458 19 23.6328 19C23.6198 19 23.6068 19 23.5938 19C23.5807 19 23.5677 19 23.5547 19C23.5417 19 23.5286 19 23.5156 19C23.5026 19 23.4896 19 23.4766 19C23.4635 19 23.4505 19 23.4375 19C23.4245 19 23.4115 19 23.3984 19C23.3854 19 23.3724 19 23.3594 19C23.3464 19 23.3333 19 23.3203 19C23.3073 19 23.2943 19 23.2813 19C23.2682 19 23.2552 19 23.2422 19C23.2292 19 23.2161 19 23.2031 19C23.1901 19 23.1771 19 23.1641 19C23.151 19 23.138 19 23.125 19C23.112 19 23.099 19 23.0859 19C23.0729 19 23.0599 19 23.0469 19C23.0339 19 23.0208 19 23.0078 19C22.9948 19 22.9818 19 22.9688 19C22.9557 19 22.9427 19 22.9297 19C22.9167 19 22.9036 19 22.8906 19C22.8776 19 22.8646 19 22.8516 19C22.8385 19 22.8255 19 22.8125 19C22.7995 19 22.7865 19 22.7734 19C22.7604 19 22.7474 19 22.7344 19C22.7214 19 22.7083 19 22.6953 19C22.6823 19 22.6693 19 22.6563 19C22.6432 19 22.6302 19 22.6172 19C22.6042 19 22.5911 19 22.5781 19C22.5651 19 22.5521 19 22.5391 19C22.526 19 22.513 19 22.5 19C22.487 19 22.474 19 22.4609 19C22.4479 19 22.4349 19 22.4219 19C22.4089 19 22.3958 19 22.3828 19C22.3698 19 22.3568 19 22.3438 19C22.3307 19 22.3177 19 22.3047 19C22.2917 19 22.2786 19 22.2656 19C22.2526 19 22.2396 19 22.2266 19C22.2135 19 22.2005 19 22.1875 19C22.1745 19 22.1615 19 22.1484 19C22.1354 19 22.1224 19 22.1094 19C22.0964 19 22.0833 19 22.0703 19C22.0573 19 22.0443 19 22.0313 19C22.0182 19 22.0052 19 21.9922 19C21.9792 19 21.9661 19 21.9531 19C21.9401 19 21.9271 19 21.9141 19C21.901 19 21.888 19 21.875 19C21.862 19 21.849 19 21.8359 19C21.8229 19 21.8099 19 21.7969 19C21.7839 19 21.7708 19 21.7578 19C21.7448 19 21.7318 19 21.7188 19C21.7057 19 21.6927 19 21.6797 19C21.6667 19 21.6536 19 21.6406 19C21.6276 19 21.6146 19 21.6016 19C21.5885 19 21.5755 19 21.5625 19C21.5495 19 21.5365 19 21.5234 19C21.5104 19 21.4974 19 21.4844 19C21.4714 19 21.4583 19 21.4453 19C21.4323 19 21.4193 19 21.4063 19C21.3932 19 21.3802 19 21.3672 19C21.3542 19 21.3411 19 21.3281 19C21.3151 19 21.3021 19 21.2891 19C21.276 19 21.263 19 21.25 19C21.237 19 21.224 19 21.2109 19C21.1979 19 21.1849 19 21.1719 19C21.1589 19 21.1458 19 21.1328 19C21.1198 19 21.1068 19 21.0938 19C21.0807 19 21.0677 19 21.0547 19C21.0417 19 21.0286 19 21.0156 19C21.0026 19 20.9896 19 20.9766 19C20.9635 19 20.9505 19 20.9375 19C20.9245 19 20.9115 19 20.8984 19C20.8854 19 20.8724 19 20.8594 19C20.8464 19 20.8333 19 20.8203 19C20.8073 19 20.7943 19 20.7813 19C20.7682 19 20.7552 19 20.7422 19C20.7292 19 20.7161 19 20.7031 19C20.6901 19 20.6771 19 20.6641 19C20.651 19 20.638 19 20.625 19C20.612 19 20.599 19 20.5859 19C20.5729 19 20.5599 19 20.5469 19C20.5339 19 20.5208 19 20.5078 19C20.4948 19 20.4818 19 20.4688 19C20.4557 19 20.4427 19 20.4297 19C20.4167 19 20.4036 19 20.3906 19C20.3776 19 20.3646 19 20.3516 19C20.3385 19 20.3255 19 20.3125 19C20.2995 19 20.2865 19 20.2734 19C20.2604 19 20.2474 19 20.2344 19C20.2214 19 20.2083 19 20.1953 19C20.1823 19 20.1693 19 20.1563 19C20.1432 19 20.1302 19 20.1172 19C20.1042 19 20.0911 19 20.0781 19C20.0651 19 20.0521 19 20.0391 19C20.026 19 20.013 19 20 19V21Z" fill="black" mask="url(#path-1-inside-1_3192_59184)"/>
</svg>
