<svg width="24" height="24" viewBox="0 0 24 24" fill="none" xmlns="http://www.w3.org/2000/svg">
<path d="M22 12C22 13.9778 21.4135 15.9112 20.3147 17.5557C19.2159 19.2002 17.6541 20.4819 15.8268 21.2388C13.9996 21.9957 11.9889 22.1937 10.0491 21.8078C8.10929 21.422 6.32746 20.4696 4.92893 19.0711C3.53041 17.6725 2.578 15.8907 2.19215 13.9509C1.80629 12.0111 2.00433 10.0004 2.7612 8.17316C3.51808 6.3459 4.79981 4.78411 6.4443 3.6853C8.08879 2.58649 10.0222 2 12 2C13.3132 2 14.6136 2.25865 15.8268 2.7612C17.0401 3.26375 18.1425 4.00034 19.0711 4.92893C19.9997 5.85751 20.7362 6.9599 21.2388 8.17316C21.7413 9.38642 22 10.6868 22 12ZM7.4 13.06L8.11 13.77L12 9.88L15.89 13.77L16.6 13.06L12 8.46L7.4 13.06Z" fill="white"/>
</svg>
