<svg id="cart" viewBox="0 0 12 12" xmlns="http://www.w3.org/2000/svg">
<g clip-path="url(#clip0_3367_59243)">
<path fill-rule="evenodd" clip-rule="evenodd" d="M5.99937 1.11628C5.48127 1.11628 4.98439 1.32209 4.61804 1.68844C4.25169 2.05479 4.04588 2.55167 4.04588 3.06977V3.34884H7.95285V3.06977C7.95285 2.55167 7.74704 2.05479 7.38069 1.68844C7.01434 1.32209 6.51746 1.11628 5.99937 1.11628ZM9.06913 3.34884V3.06977C9.06913 2.25561 8.74571 1.47481 8.17002 0.899114C7.59433 0.323421 6.81352 0 5.99937 0C5.18521 0 4.40441 0.323421 3.82871 0.899114C3.25302 1.47481 2.9296 2.25561 2.9296 3.06977V3.34884H1.39471C1.13566 3.34884 0.887226 3.45174 0.704051 3.63492C0.520876 3.81809 0.417969 4.06653 0.417969 4.32558V9.97674C0.417969 11.0762 1.34181 12 2.44123 12H9.5575C10.6405 12 11.5808 11.1251 11.5808 10.0094V4.32558C11.5808 4.06653 11.4779 3.81809 11.2947 3.63492C11.1115 3.45174 10.8631 3.34884 10.604 3.34884H9.06913ZM1.53425 4.46512V9.97674C1.53425 10.4597 1.95832 10.8837 2.44123 10.8837H9.5575C10.0569 10.8837 10.4645 10.4761 10.4645 10.0094V4.46512H1.53425Z"/>
</g>
<defs>
<clipPath id="clip0_3367_59243">
<rect width="12" height="12" fill="white"/>
</clipPath>
</defs>
</svg>
