<svg id="cart" viewBox="0 0 12 12" xmlns="http://www.w3.org/2000/svg">
<path fill-rule="evenodd" clip-rule="evenodd" d="M5.5814 1.11628C5.0633 1.11628 4.56642 1.32209 4.20007 1.68844C3.83372 2.05479 3.62791 2.55167 3.62791 3.06977V3.34884H7.53488V3.06977C7.53488 2.55167 7.32907 2.05479 6.96272 1.68844C6.59637 1.32209 6.09949 1.11628 5.5814 1.11628ZM8.65116 3.34884V3.06977C8.65116 2.25561 8.32774 1.47481 7.75205 0.899114C7.17636 0.323421 6.39555 0 5.5814 0C4.76724 0 3.98644 0.323421 3.41074 0.899114C2.83505 1.47481 2.51163 2.25561 2.51163 3.06977V3.34884H0.976744C0.717695 3.34884 0.469257 3.45174 0.286082 3.63492C0.102907 3.81809 0 4.06653 0 4.32558V9.97674C0 11.0762 0.923841 12 2.02326 12H9.13953C10.2225 12 11.1628 11.1251 11.1628 10.0094V4.32558C11.1628 4.06653 11.0599 3.81809 10.8767 3.63492C10.6935 3.45174 10.4451 3.34884 10.186 3.34884H8.65116ZM1.11628 4.46512V9.97674C1.11628 10.4597 1.54035 10.8837 2.02326 10.8837H9.13953C9.63891 10.8837 10.0465 10.4761 10.0465 10.0094V4.46512H1.11628Z" />
</svg>
