<svg id="geo" viewBox="0 0 14 17" fill="none" xmlns="http://www.w3.org/2000/svg">
<path d="M7 16L6.69944 16.3996C6.87779 16.5337 7.12345 16.5334 7.30148 16.3989L7 16ZM12.5 6.93023C12.5 9.00156 11.1132 11.1478 9.62502 12.835C8.89243 13.6655 8.15831 14.3592 7.60681 14.8455C7.33141 15.0884 7.10244 15.2787 6.94315 15.4077C6.86353 15.4722 6.80138 15.5213 6.75962 15.5539C6.73874 15.5702 6.72297 15.5824 6.71266 15.5903C6.70751 15.5943 6.70372 15.5972 6.70135 15.599C6.70016 15.5999 6.69933 15.6005 6.69886 15.6009C6.69862 15.601 6.69847 15.6011 6.69842 15.6012C6.69839 15.6012 6.69841 15.6012 6.6984 15.6012C6.69845 15.6012 6.69852 15.6011 7 16C7.30148 16.3989 7.3016 16.3988 7.30174 16.3987C7.30182 16.3986 7.30198 16.3985 7.30213 16.3984C7.30244 16.3982 7.30284 16.3979 7.30333 16.3975C7.30431 16.3967 7.30565 16.3957 7.30735 16.3944C7.31074 16.3918 7.31556 16.3882 7.32176 16.3834C7.33416 16.3739 7.35208 16.36 7.37515 16.342C7.42128 16.306 7.48804 16.2532 7.57248 16.1849C7.74131 16.0481 7.98109 15.8488 8.26819 15.5956C8.84169 15.0899 9.60757 14.3665 10.375 13.4964C11.8868 11.7824 13.5 9.39378 13.5 6.93023H12.5ZM7 16C7.30056 15.6004 7.30063 15.6005 7.30068 15.6005C7.30066 15.6005 7.30069 15.6005 7.30066 15.6005C7.30061 15.6005 7.30046 15.6003 7.30023 15.6002C7.29975 15.5998 7.29892 15.5992 7.29774 15.5983C7.29537 15.5965 7.29159 15.5936 7.28644 15.5897C7.27615 15.5818 7.26038 15.5697 7.23952 15.5535C7.19778 15.521 7.13566 15.4722 7.05606 15.408C6.89681 15.2795 6.66789 15.09 6.39255 14.848C5.84116 14.3635 5.10717 13.6719 4.37471 12.8428C2.88715 11.159 1.5 9.01268 1.5 6.93023H0.5C0.5 9.40448 2.11285 11.793 3.62529 13.5049C4.39283 14.3737 5.15884 15.0952 5.73245 15.5992C6.01961 15.8516 6.25944 16.0502 6.42832 16.1864C6.51278 16.2545 6.57956 16.307 6.62572 16.3429C6.6488 16.3609 6.66672 16.3747 6.67913 16.3841C6.68534 16.3889 6.69016 16.3926 6.69356 16.3951C6.69526 16.3964 6.69661 16.3974 6.69759 16.3982C6.69808 16.3986 6.69848 16.3989 6.69879 16.3991C6.69894 16.3992 6.69911 16.3993 6.69918 16.3994C6.69933 16.3995 6.69944 16.3996 7 16ZM1.5 6.93023C1.5 3.9367 3.9569 1.5 7 1.5V0.5C3.41568 0.5 0.5 3.37342 0.5 6.93023H1.5ZM7 1.5C10.0431 1.5 12.5 3.9367 12.5 6.93023H13.5C13.5 3.37342 10.5843 0.5 7 0.5V1.5Z" fill="black"/>
<path d="M6.91224 9.33398C8.31136 9.33398 9.44557 8.2147 9.44557 6.83398C9.44557 5.45327 8.31136 4.33398 6.91224 4.33398C5.51312 4.33398 4.37891 5.45327 4.37891 6.83398C4.37891 8.2147 5.51312 9.33398 6.91224 9.33398Z" stroke="black" stroke-miterlimit="10" stroke-linecap="round" stroke-linejoin="round"/>
</svg>
