<svg width="15" height="15" viewBox="0 0 15 15" fill="none" xmlns="http://www.w3.org/2000/svg">
<mask id="path-1-inside-1_3107_49953" fill="white">
<path d="M7.5 15C3.365 15 0 11.6358 0 7.5C0 3.36417 3.365 0 7.5 0C11.635 0 15 3.36417 15 7.5C15 11.6358 11.635 15 7.5 15Z"/>
</mask>
<path d="M7.5 14C3.91721 14 1 11.0835 1 7.5H-1C-1 12.1882 2.81279 16 7.5 16V14ZM1 7.5C1 3.91652 3.91721 1 7.5 1V-1C2.81279 -1 -1 2.81181 -1 7.5H1ZM7.5 1C11.0828 1 14 3.91652 14 7.5H16C16 2.81181 12.1872 -1 7.5 -1V1ZM14 7.5C14 11.0835 11.0828 14 7.5 14V16C12.1872 16 16 12.1882 16 7.5H14Z" fill="black" mask="url(#path-1-inside-1_3107_49953)"/>
<path d="M7.5 10.5V6H6M5.5 10.5H9.5" stroke="black"/>
<path d="M7.5 3V4.5" stroke="black"/>
</svg>
