<svg width="16" height="16" viewBox="0 0 16 16" fill="none" xmlns="http://www.w3.org/2000/svg">
<g clip-path="url(#clip0_3428_66062)">
<path d="M14.4194 12.5683L10.9963 9.45595C10.9304 9.39613 10.844 9.36423 10.7551 9.36698C10.6662 9.36973 10.5818 9.40691 10.5198 9.47068L10.5145 9.47614L10.5091 9.48143L8.81619 11.1199L8.62965 11.3004L8.37467 11.2517C7.81071 11.144 6.73882 10.8013 5.65168 9.71688C4.56464 8.62894 4.22078 7.55345 4.1156 6.99116L4.06416 6.71616L4.27161 6.52846L6.0122 4.95358C6.07301 4.8922 6.10839 4.81 6.11106 4.72348C6.1138 4.6347 6.0819 4.54833 6.02209 4.48265L2.91065 1.06052C2.85082 0.994639 2.76747 0.954466 2.67864 0.94891C2.58981 0.943355 2.50232 0.972645 2.43474 1.03056L0.625914 2.5818C0.573132 2.63973 0.541733 2.71416 0.537263 2.79271L0.537176 2.79424C0.536727 2.80173 0.535687 2.81457 0.534238 2.83254C0.491931 3.35682 0.0976377 8.24303 3.66617 11.8132M14.4194 12.5683L12.7151 15.4413C12.6873 15.443 12.5829 15.448 12.4128 15.448C12.3849 15.448 12.3551 15.4481 12.3233 15.4481C11.0311 15.4504 6.43776 14.543 3.14559 11.2517L3.66617 11.8132M14.4194 12.5683C14.485 12.6278 14.5248 12.7106 14.5302 12.7991C14.5356 12.8875 14.5062 12.9745 14.4483 13.0416L14.4471 13.043L12.8958 14.8537M14.4194 12.5683L12.8958 14.8537M3.66617 11.8132C7.07109 14.9481 11.0529 14.9498 12.3323 14.9481C12.3606 14.948 12.3875 14.948 12.4128 14.948C12.5737 14.948 12.668 14.9432 12.6849 14.9422L12.6872 14.942C12.765 14.9377 12.8387 14.9064 12.8958 14.8537M3.66617 11.8132L7.56221 14.1814L10.9963 15.1401L12.8958 14.8537" stroke="black"/>
</g>
<defs>
<clipPath id="clip0_3428_66062">
<rect width="16" height="16" fill="white"/>
</clipPath>
</defs>
</svg>
