<svg width="18" height="15" viewBox="0 0 18 15" fill="none" xmlns="http://www.w3.org/2000/svg">
<path d="M11.4615 3.95179V2.32941C11.4615 1.89913 11.2995 1.48647 11.0109 1.18221C10.7224 0.87796 10.3311 0.707031 9.92308 0.707031H2.53846C2.13044 0.707031 1.73912 0.87796 1.4506 1.18221C1.16209 1.48647 1 1.89913 1 2.32941V12.0637C1 12.494 1.16209 12.9066 1.4506 13.2109C1.73912 13.5151 2.13044 13.6861 2.53846 13.6861H9.92308C10.3311 13.6861 10.7224 13.5151 11.0109 13.2109C11.2995 12.9066 11.4615 12.494 11.4615 12.0637V10.4413M13.9231 3.95179L17 7.19654M17 7.19654L13.9231 10.4413M17 7.19654H6.5" stroke="white" stroke-linecap="round" stroke-linejoin="round"/>
</svg>
