<svg id="google" viewBox="0 0 17 17" fill="none" xmlns="http://www.w3.org/2000/svg">
<path d="M8.42893 6.84649V10.1392H12.907C12.2485 11.9172 10.5363 13.1026 8.56064 13.1026C5.99235 13.1026 3.95089 11.0611 3.95089 8.49283C3.95089 5.92454 5.99235 3.88308 8.56064 3.88308C9.54845 3.88308 10.4704 4.21235 11.2606 4.73918L11.5241 4.93674L13.4997 2.36844L13.2363 2.17088C11.8533 1.18308 10.2728 0.65625 8.56064 0.65625C4.2143 0.65625 0.658203 4.21235 0.658203 8.55869C0.658203 12.905 4.2143 16.4611 8.56064 16.4611C12.907 16.4611 16.4631 12.905 16.4631 8.55869V6.91235H8.42893V6.84649Z" fill="#263238"/>
</svg>
