<svg width="40" height="24" viewBox="0 0 40 24" fill="none" xmlns="http://www.w3.org/2000/svg">
<g opacity="0.4">
<path d="M25.4098 21.435H14.5908V2.56641H25.4098V21.435Z" fill="#A1AEB3"/>
<path d="M15.2831 12C15.2831 8.17242 17.1298 4.76292 20.0056 2.56571C17.9026 0.958992 15.2485 0 12.3641 0C5.53541 0 0 5.3725 0 12C0 18.6275 5.53541 24 12.3641 24C15.2485 24 17.9026 23.041 20.0056 21.4343C17.1298 19.2371 15.2831 15.8276 15.2831 12Z" fill="#F0F3F5"/>
<path d="M39.9996 12C39.9996 18.6275 34.4642 24 27.6355 24C24.7511 24 22.0969 23.041 19.9932 21.4343C22.8698 19.2371 24.7165 15.8276 24.7165 12C24.7165 8.17242 22.8698 4.76292 19.9932 2.56571C22.0969 0.958992 24.7511 0 27.6355 0C34.4642 0 39.9996 5.3725 39.9996 12Z" fill="#F0F3F5"/>
</g>
</svg>
