<svg width="68" height="20" viewBox="0 0 68 20" fill="none" xmlns="http://www.w3.org/2000/svg">
<g opacity="0.4">
<path fill-rule="evenodd" clip-rule="evenodd" d="M10.8031 2.16875C11.3377 2.16561 12.9265 2.02532 13.5995 4.25212C14.0529 5.75212 14.775 8.20919 15.7659 11.6233H16.1695C17.2322 8.02391 17.9622 5.56684 18.3595 4.25212C19.0395 2.00212 20.7395 2.16879 21.4195 2.16879L26.6659 2.1688V18.1688H21.3187V8.73971H20.9601L17.9793 18.1688H13.9562L10.9753 8.73273H10.6168V18.1688H5.26953V2.1688L10.8031 2.16875ZM34.3444 2.1688V11.6049H34.771L38.3969 3.84565C39.1007 2.30155 40.6009 2.1688 40.6009 2.1688H45.7754V18.1688H40.3165V8.73273H39.8899L36.3351 16.4919C35.6313 18.0291 34.06 18.1688 34.06 18.1688H28.8855V2.1688H34.3444ZM64.6438 9.7721C63.8824 11.8876 61.4911 13.4026 58.8436 13.4026H53.1188V18.1688H47.9277V9.7721H64.6438Z" fill="#F0F3F5"/>
<path fill-rule="evenodd" clip-rule="evenodd" d="M59.0937 2.16797H47.6553C47.9275 5.73011 51.0565 8.77954 54.2956 8.77954H65.0043C65.6222 5.81898 63.4949 2.16797 59.0937 2.16797Z" fill="#F0F3F5"/>
</g>
</svg>
