<svg id="search" viewBox="0 0 12 13" fill="none" xmlns="http://www.w3.org/2000/svg">
<g clip-path="url(#clip0_2899_4170)">
<path d="M5.18179 1.50195C4.4536 1.50195 3.74177 1.71789 3.1363 2.12245C2.53083 2.52701 2.05893 3.10203 1.78026 3.77479C1.5016 4.44755 1.42868 5.18783 1.57075 5.90203C1.71281 6.61623 2.06347 7.27226 2.57837 7.78717C3.09328 8.30208 3.74931 8.65274 4.46351 8.7948C5.17771 8.93687 5.91799 8.86395 6.59075 8.58529C7.26351 8.30662 7.83853 7.83472 8.24309 7.22925C8.64765 6.62378 8.86358 5.91194 8.86358 5.18375C8.86352 4.2073 8.4756 3.27085 7.78514 2.5804C7.09469 1.88994 6.15825 1.50202 5.18179 1.50195V1.50195Z" stroke-width="1.2" stroke-miterlimit="10"/>
<path d="M7.92871 7.93066L10.5 10.502" stroke-width="1.2" stroke-miterlimit="10" stroke-linecap="round"/>
</g>
<defs>
<clipPath id="clip0_2899_4170">
<rect width="12" height="12" fill="transparent" transform="translate(0 0.00195312)"/>
</clipPath>
</defs>
</svg>
