<svg width="62" height="20" viewBox="0 0 62 20" fill="none" xmlns="http://www.w3.org/2000/svg">
<g opacity="0.4">
<path d="M26.8662 20.0001H21.8438L24.9851 0.982422H30.0073L26.8662 20.0001Z" fill="#F0F3F5"/>
<path d="M45.0727 0.809659C44.0821 0.424863 42.5109 0 40.568 0C35.6082 0 32.1156 2.58951 32.0941 6.29173C32.0529 9.02322 34.5948 10.5404 36.4959 11.4511C38.439 12.3818 39.0995 12.9892 39.0995 13.8188C39.0797 15.0928 37.5293 15.6801 36.0833 15.6801C34.0782 15.6801 33.0038 15.3773 31.371 14.6685L30.7097 14.3647L30.0068 18.6337C31.1848 19.1592 33.355 19.6254 35.6082 19.6459C40.8781 19.6459 44.309 17.0964 44.3496 13.1511C44.3696 10.9862 43.0275 9.32735 40.1338 7.97182C38.3772 7.10166 37.3014 6.51492 37.3014 5.62459C37.322 4.8152 38.2113 3.98618 40.1942 3.98618C41.827 3.94557 43.0266 4.32983 43.9354 4.71436L44.3897 4.9163L45.0727 0.809659Z" fill="#F0F3F5"/>
<path d="M51.749 12.6242C52.1626 11.5316 53.7542 7.30316 53.7542 7.30316C53.7333 7.34376 54.167 6.19045 54.415 5.48244L54.766 7.12111C54.766 7.12111 55.7171 11.6733 55.9236 12.6242C55.1387 12.6242 52.741 12.6242 51.749 12.6242ZM57.9486 0.34375H54.0637C52.8657 0.34375 51.9556 0.687405 51.4387 1.92166L43.9785 19.3612H49.2484C49.2484 19.3612 50.116 17.014 50.3025 16.5084C50.8806 16.5084 56.0071 16.5084 56.7509 16.5084C56.895 17.1761 57.3501 19.3612 57.3501 19.3612H62.0004L57.9486 0.34375Z" fill="#F0F3F5"/>
<path d="M17.6489 0.34375L12.7303 13.312L12.1929 10.6819C11.2835 7.64708 8.4316 4.34983 5.24902 2.71034L9.75429 19.3413H15.0654L22.9597 0.34375H17.6489Z" fill="#F0F3F5"/>
<path d="M8.16326 0.34375H0.0826676L0 0.728008C6.30337 2.30618 10.478 6.11032 12.1931 10.6827L10.4365 1.94236C10.1473 0.72774 9.25854 0.383816 8.16326 0.34375Z" fill="#F0F3F5"/>
</g>
</svg>
