<svg id="warn" viewBox="0 0 20 20" fill="none" xmlns="http://www.w3.org/2000/svg">
<path d="M10 20C15.5228 20 20 15.5228 20 10C20 4.47715 15.5228 0 10 0C4.47715 0 0 4.47715 0 10C0 15.5228 4.47715 20 10 20Z" fill="var(--icon-bg, #A1AEB3)"/>
<path d="M11.1729 10.5859L8.82853 10.5859L8.82853 4.13905L11.1729 4.13905L11.1729 10.5859Z" fill="var(--icon-color, #fff)"/>
<path d="M10.0006 12.343C9.19141 12.343 8.53542 12.999 8.53542 13.8082C8.53542 14.6174 9.19141 15.2734 10.0006 15.2734C10.8098 15.2734 11.4658 14.6174 11.4658 13.8082C11.4658 12.999 10.8098 12.343 10.0006 12.343Z" fill="var(--icon-color, #fff)"/>
</svg>
