<svg width="33" height="33" viewBox="0 0 33 33" fill="none" xmlns="http://www.w3.org/2000/svg">
<path d="M29.5903 16.243L32.2006 20.731C32.7242 21.6312 32.9999 22.6525 33 23.692C33.0001 24.7315 32.7245 25.7528 32.201 26.6532C31.6775 27.5535 30.9245 28.3012 30.0176 28.8212C29.1108 29.3412 28.082 29.6151 27.0347 29.6154H23.5175V33L14.9929 27.077L23.5175 21.154V24.5386H27.033C27.1698 24.5394 27.3049 24.5073 27.4266 24.4452C27.5482 24.383 27.653 24.2925 27.7319 24.1815C27.8107 24.0705 27.8614 23.9422 27.8795 23.8075C27.8976 23.6729 27.8827 23.5359 27.836 23.4082L27.7712 23.2694L25.161 18.7815L29.5903 16.243ZM9.42983 11.6502L10.3334 21.9393L7.38395 20.247L5.62448 23.2694C5.55532 23.3867 5.51575 23.5188 5.50913 23.6545C5.50252 23.7902 5.52906 23.9255 5.5865 24.0488C5.64394 24.1722 5.73057 24.2799 5.839 24.3628C5.94744 24.4457 6.07447 24.5014 6.20927 24.5251L6.36271 24.5386H11.5831V29.6154H6.36271C5.31526 29.6154 4.28628 29.3417 3.37918 28.8219C2.47207 28.302 1.71881 27.5543 1.1951 26.6539C0.67139 25.7535 0.395683 24.7321 0.395689 23.6924C0.395696 22.6527 0.671417 21.6314 1.19514 20.731L2.9529 17.7086L0 16.0163L9.42813 11.6502H9.42983ZM19.6814 0.794234C20.5884 1.31376 21.342 2.06175 21.8654 2.96204L23.6215 5.98445L26.5761 4.29217L25.6725 14.5812L16.2409 10.2152L19.1938 8.52287L17.4361 5.50046C17.3682 5.38252 17.2726 5.28261 17.1574 5.20924C17.0423 5.13587 16.911 5.09121 16.7747 5.07908C16.6384 5.06695 16.5011 5.0877 16.3747 5.13956C16.2482 5.19142 16.1362 5.27285 16.0483 5.37693L15.9596 5.50046L13.3511 9.98839L8.92007 7.44997L11.5286 2.96204C11.9204 2.28824 12.4421 1.69766 13.0639 1.22404C13.6857 0.750419 14.3955 0.403031 15.1526 0.201721C15.9097 0.000411742 16.6993 -0.0508755 17.4764 0.0507893C18.2535 0.152454 19.0027 0.405079 19.6814 0.794234Z" fill="#A1AEB3"/>
</svg>
